<svg id="Layer_1" height="512" viewBox="0 0 512 512" width="512" xmlns="http://www.w3.org/2000/svg" data-name="Layer 1"><path d="m145.81 37.2-106.34 177.68 51.19 34.52 106.01-180.17z" fill="#687990"/><path d="m145.81 37.2-106.34 177.68 23 15 106.34-177.68z" fill="#8a9db2"/><path d="m257.53 415.1.07.14-1.25.66-18.48 9.04-17.3-1.99 2.79-21.85 233.99-141.75 28.07 8.77-7.92 30.25z" fill="#fea92a"/><path d="m430.28 196.84-.64 26.92-221.67 159.16-20.76.77 6.36-20.59 208.37-169.91z" fill="#fea92a"/><path d="m362.59 134.89 8.48 26.15-190.98 182.21-20.27-.04 6.23-19.24 172.41-189.54z" fill="#fea92a"/><path d="m457.72 231.43-.37 27.92-233.99 141.75-19.36 4.56 3.97-22.74 221.67-159.16z" fill="#ffdb00"/><path d="m397.64 162.75 4.3 30.44-208.37 169.91-21.07-.45 7.59-19.4 190.98-182.21z" fill="#ffdb00"/><path d="m329.89 112.66 8.57 21.77-172.41 189.54-20.77 1.7 10.5-18.05 152.11-194.08z" fill="#ffdb00"/><path d="m90.66 249.4-9.31 15.82-70.35-47.82 28.47-2.52z" fill="#5b6c7f"/><path d="m118.84 38.95-107.84 178.45 28.47-2.52 106.34-177.68z" fill="#687990"/><path d="m90.66 249.4 106.01-180.17.62-1.05 42.2-.52-128.69 199.06-33.27 4.99 3.82-6.49z" fill="#b06c39"/><path d="m155.78 307.62-24.26 11.08-53.99-46.99 33.27-4.99z" fill="#894a1f"/><path d="m257.6 415.24 31.39 59.56-24.17-4.22-26.95-45.64 18.48-9.04z" fill="#894a1f"/><path d="m477.5 298.37 23.5 72.06-212.01 104.37-31.39-59.56-.07-.14z" fill="#995628"/><path d="m307.89 113.54-152.11 194.08-44.98-40.9 128.69-199.06z" fill="#995628"/><path d="m239.49 67.66-128.69 199.06 19 16 129.69-200.06z" fill="#b58663"/><path d="m484.813 320.796-7.313-22.426-219.97 116.73.07.14 10.761 20.419z" fill="#b58663"/><path d="m255.96 104.57a11.636 11.636 0 1 1 -16.45.21 11.64 11.64 0 0 1 16.45-.21z" fill="#d4e1f4"/><path d="m228.59 146.37a11.633 11.633 0 1 1 -16.45.2 11.628 11.628 0 0 1 16.45-.2z" fill="#d4e1f4"/><path d="m470.77 348.38a11.636 11.636 0 1 1 -16.46.21 11.64 11.64 0 0 1 16.46-.21z" fill="#d4e1f4"/><path d="m431.04 366.21a11.636 11.636 0 1 1 -16.45.2 11.628 11.628 0 0 1 16.45-.2z" fill="#d4e1f4"/><g fill="#4a5160"><path d="m157.16 70.865-22.667-14.441-6.447 10.121 22.667 14.441a6 6 0 1 0 6.447-10.121z"/><path d="m137.812 105.557-23.767-15.011-6.408 10.145 23.763 15.009a6 6 0 1 0 6.408-10.145z"/><path d="m117.223 135.341-21.377-14.141-6.621 10.01 21.375 14.14a6 6 0 0 0 6.621-10.009z"/><path d="m99.422 168.984-22.967-15.333-6.664 9.98 22.967 15.334a6 6 0 0 0 6.664-9.981z"/><path d="m77.188 197.026-19.236-12.565-6.562 10.047 19.235 12.565a6 6 0 0 0 6.563-10.047z"/></g></svg>