<svg id="Layer_1" height="512" viewBox="0 0 512 512" width="512" xmlns="http://www.w3.org/2000/svg" data-name="Layer 1"><path d="m180.726 353.375-159.626-213.575a80.35 80.35 0 0 1 128.5-96.5l19.806 24.552-9.6 7.206-19.796-24.552a68.35 68.35 0 0 0 -109.31 82.085l159.621 213.578z" fill="#eadf53"/><path d="m160.788 62.301h26.554v46.468h-26.554z" fill="#6d7486" transform="matrix(.8 -.601 .601 .8 -16.478 121.704)"/><path d="m496.81 410.09c15.35 20.44-15.23 51.29-31.56 63.55-16.72 12.55-54.63 32.82-69.83 12.58l-4.78-6.37 101.39-76.13z" fill="#305fc9"/><path d="m474.19 379.96 17.84 23.76-101.39 76.13-24.26-32.31 47.47-35.65.3-.23 6.43 8.56z" fill="#e2e4ed"/><path d="m449.68 347.32 10.96 14.6-53.62 40.26 7.13 9.48-.3.23-47.47 35.65-24.52-32.65 47.48-35.64.3-.22 6.42 8.55z" fill="#ccd3df"/><path d="m422.32 310.89 13.8 18.38-53.61 40.26 7.13 9.5-.3.22-47.48 35.64-20.93-27.87z" fill="#e2e4ed"/><path d="m407.82 291.58 14.5 19.31-101.39 76.13-20.92-27.86 47.47-35.65.3-.23 6.43 8.56z" fill="#ccd3df"/><path d="m383.31 258.93 10.96 14.6-53.62 40.26 7.13 9.49-.3.23-47.47 35.65-24.52-32.65 47.48-35.65.3-.22 6.42 8.55z" fill="#e2e4ed"/><path d="m356.55 223.3 13.2 17.58-53.61 40.26 7.13 9.5-.3.22-47.48 35.65-20.32-27.07z" fill="#ccd3df"/><path d="m342.05 203.99 14.5 19.31-101.38 76.14-20.93-27.87 47.47-35.65.3-.23 6.43 8.56z" fill="#e2e4ed"/><path d="m328.5 185.94-53.62 40.26 7.13 9.49-.3.23-47.47 35.65-24.52-32.65 47.48-35.64.3-.22 6.42 8.55 53.62-40.27z" fill="#ccd3df"/><path d="m293.02 138.7 10.96 14.6-53.61 40.26 7.13 9.5-.3.22-47.48 35.64-24.51-32.64 47.47-35.65.3-.23 6.43 8.56z" fill="#e2e4ed"/><path d="m261.63 96.9 17.84 23.75-53.62 40.26 7.13 9.49-.3.23-47.47 35.65-24.97-33.25 101.39-76.14z" fill="#ccd3df"/><path d="m261.63 96.89-101.39 76.14-4.78-6.37c-14.99-19.96 14.02-50.14 30.86-63.02l.78-.59c16.36-12.26 54.42-32.93 69.75-12.53z" fill="#305fc9"/><path d="m415.42 471.22-4.78-6.37-20 15 4.78 6.37c15.2 20.24 53.11-.03 69.83-12.58 2.858-2.146 6.154-4.863 9.563-7.993-18.804 11.376-46.841 22.287-59.393 5.573z" fill="#3c77f1"/><path d="m175.46 152.66c-13.446-17.9 8.508-44.027 25.328-58.515a132.691 132.691 0 0 0 -13.688 8.905l-.78.59c-16.84 12.88-45.85 43.06-30.86 63.02l4.78 6.37 19.511-14.652z" fill="#3c77f1"/><g fill="#6d7486"><path d="m281.107 228.125-50.775 38.875 7.206 9.596 50.775-38.876z"/><path d="m256.592 195.478-50.775 38.876 7.206 9.595 50.775-38.875z"/><path d="m232.077 162.832-50.775 38.876 7.206 9.595 50.775-38.876z"/><path d="m346.879 315.712-50.775 38.876 7.206 9.596 50.775-38.876z"/><path d="m322.364 283.066-50.775 38.876 7.206 9.596 50.775-38.876z"/><path d="m413.249 404.097-50.775 38.876 7.206 9.595 50.775-38.876z"/><path d="m388.734 371.45-50.776 38.876 7.207 9.596 50.775-38.876z"/></g><path d="m474.19 379.96-53.61 40.26-6.43-8.56-7.13-9.48 53.62-40.26z" fill="#424f7c"/><path d="m436.12 329.27 13.56 18.05-53.62 40.26-6.42-8.55-7.13-9.5z" fill="#424f7c"/><path d="m394.27 273.53 13.55 18.05-53.61 40.26-6.43-8.56-7.13-9.49z" fill="#424f7c"/><path d="m383.31 258.93-53.62 40.26-6.42-8.55-7.13-9.5 53.61-40.26z" fill="#424f7c"/><path d="m328.5 185.94 13.55 18.05-53.61 40.26-6.43-8.56-7.13-9.49z" fill="#424f7c"/><path d="m317.54 171.34-53.62 40.27-6.42-8.55-7.13-9.5 53.61-40.26z" fill="#424f7c"/><path d="m279.47 120.65 13.55 18.05-53.61 40.26-6.43-8.56-7.13-9.49z" fill="#424f7c"/><path d="m216.58 360.27-25.11-28.47-24.42 18.34 20.33 32.05 29.99 21.69 11.67-8.77z" fill="#6d7486"/></svg>