<svg id="Layer_1" height="512" viewBox="0 0 512 512" width="512" xmlns="http://www.w3.org/2000/svg" data-name="Layer 1"><path d="m77.521 25.637h39.003v12h-39.003z" fill="#4a5160" transform="matrix(.704 -.71 .71 .704 6.231 78.233)"/><path d="m105.21 53.107h39.003v12h-39.003z" fill="#4a5160" transform="matrix(.704 -.71 .71 .704 -5.082 106.012)"/><path d="m121.66 80.92-50.34-49.94s-10.98 8.75-15.32 10.1c-4.6 1.43-16.12.24-16.12.24s.79 12.44-.63 16.75c-1.48 4.47-9.46 14.77-9.46 14.77l50.34 49.94 31.02 16.39.46-.06 26.64-26.84.05-.46z" fill="#687990"/><path d="m442.69 411.97s-13.49 8.77-17.18 12.49-12.35 17.28-12.35 17.28l18.93 18.78 29.53-29.77z" fill="#687990"/><path d="m463.73 284.27a126.039 126.039 0 1 1 -192.23 17.46l.23-.23 21.47 21.77a96.094 96.094 0 0 0 133.05 131.73l.14-.14 5.7 5.66 29.53-29.77-5.54-5.5a96.1 96.1 0 0 0 -132.25-132.86l-21.98-21.33a126.077 126.077 0 0 1 161.88 13.21z" fill="#b16c39"/><path d="m293.2 323.27a96.547 96.547 0 0 1 13.56-17.18c.12-.12.24-.25.37-.36a96.075 96.075 0 0 1 148.95 119.52l-13.39-13.28s-13.49 8.77-17.18 12.49-12.35 17.28-12.35 17.28l13.23 13.12-.14.14a96.094 96.094 0 0 1 -133.05-131.73z" fill="#f3e2b8"/><path d="m138.25 112.27-12.96 13.06.8.79 180.32 178.88.72.73a96.06 96.06 0 0 1 16.7-13.34z" fill="#4f5760"/><path d="m306.41 305-180.32-178.88-.8-.79-13.68 13.78 181.59 184.16a96.547 96.547 0 0 1 13.56-17.18c.12-.12.24-.25.37-.36z" fill="#63707c"/><path d="m337.3 441.94a95.961 95.961 0 0 1 -.54-135.85c.12-.12.24-.25.37-.36a95.379 95.379 0 0 1 52.838-26.862 95.7 95.7 0 0 0 -82.838 26.862c-.13.11-.25.24-.37.36a96.057 96.057 0 0 0 83.2 162.532 95.629 95.629 0 0 1 -52.66-26.682z" fill="#ddc694"/><path d="m375.345 421.647a6 6 0 0 1 -4.259-10.226l42.12-42.455a6 6 0 1 1 8.518 8.451l-42.124 42.456a5.979 5.979 0 0 1 -4.255 1.774z" fill="#4a5160"/><path d="m15.226 104.865a6 6 0 1 0 -8.452 8.518l10.153 10.073a6 6 0 1 0 8.451-8.519z" fill="#d8a43d"/><path d="m111.369 7.956a6 6 0 0 0 -8.452 8.518l10.153 10.072a6 6 0 0 0 8.451-8.519z" fill="#d8a43d"/><path d="m42.914 132.334a6 6 0 1 0 -8.451 8.519l10.152 10.072a6 6 0 0 0 8.451-8.519z" fill="#d8a43d"/><path d="m149.209 45.5-10.152-10.075a6 6 0 1 0 -8.451 8.518l10.152 10.073a6 6 0 0 0 8.451-8.519z" fill="#d8a43d"/><g fill="#4a5160"><circle cx="58" cy="75" r="6"/><circle cx="73" cy="60" r="6"/><circle cx="86.5" cy="103.5" r="6"/><circle cx="101.5" cy="88.5" r="6"/></g><path d="m210.249 88.564h12v253.993h-12z" fill="#313960" transform="matrix(.704 -.71 .71 .704 -89.081 217.27)"/><path d="m10.848 92.858h39.002v12h-39.002z" fill="#4a5160" transform="matrix(.704 -.71 .71 .704 -61.206 50.778)"/><path d="m38.536 120.328h39.003v12h-39.003z" fill="#4a5160" transform="matrix(.704 -.71 .71 .704 -72.519 78.557)"/></svg>