<svg id="Layer_1" height="512" viewBox="0 0 512 512" width="512" xmlns="http://www.w3.org/2000/svg" data-name="Layer 1"><path d="m407.88 28.88 27.34 331.1-155.59 141.02-14.82-417.45z" fill="#4e6cca"/><path d="m264.81 83.55 14.82 417.45-202.85-89.93 20.95-356.64z" fill="#43a2ff"/><path d="m97.73 54.43-20.95 356.64 30.327 13.445 20.623-364.085z" fill="#76c1ff"/><path d="m367.01 289.12c11.76 2.01 17.98 23.01 13.89 46.9s-16.93 41.63-28.69 39.62-17.97-23.01-13.89-46.9 16.93-41.63 28.69-39.62z" fill="#4a5160"/><path d="m407.88 28.88-143.07 54.67-167.08-29.12 155.46-43.43z" fill="#49bdff"/><g fill="#4a5160"><path d="m235.37 112.92a6 6 0 0 1 -4.77-7.02 6 6 0 0 1 7.02-4.77 6 6 0 0 1 4.77 7.02 6 6 0 0 1 -5.89 4.87 6.243 6.243 0 0 1 -1.13-.1zm-39.29-7.49a6 6 0 0 1 -4.77-7.02 6 6 0 0 1 7.02-4.77 6 6 0 0 1 4.77 7.02 6.008 6.008 0 0 1 -5.89 4.87 6.243 6.243 0 0 1 -1.13-.1zm-39.29-7.49a6 6 0 0 1 -4.77-7.02 6 6 0 0 1 7.02-4.77 6 6 0 0 1 4.77 7.01 6.007 6.007 0 0 1 -5.89 4.88 6.165 6.165 0 0 1 -1.13-.1zm-39.29-7.5a5.992 5.992 0 0 1 -4.771-7.01 6 6 0 0 1 7.011-4.78 6 6 0 0 1 4.77 7.02 5.988 5.988 0 0 1 -5.88 4.88 6.18 6.18 0 0 1 -1.13-.11z"/><path d="m241.88 435.82a6 6 0 0 1 5.8-6.19 6 6 0 0 1 6.19 5.81 5.993 5.993 0 0 1 -5.81 6.18 1.21 1.21 0 0 1 -.19.01 6 6 0 0 1 -5.99-5.81zm-1.28-39.98a6 6 0 0 1 5.8-6.19 5.994 5.994 0 0 1 6.191 5.8 5.987 5.987 0 0 1 -5.8 6.19 1.34 1.34 0 0 1 -.2.01 6 6 0 0 1 -5.991-5.81zm-1.281-39.98a6 6 0 0 1 5.811-6.19 6.007 6.007 0 0 1 6.189 5.81 6.013 6.013 0 0 1 -5.809 6.19h-.191a6 6 0 0 1 -6-5.81zm-1.279-39.98a6.006 6.006 0 0 1 5.81-6.19 6 6 0 0 1 6.19 5.81 6.014 6.014 0 0 1 -5.811 6.19h-.189a6 6 0 0 1 -6-5.81zm-1.27-39.98a6 6 0 0 1 5.8-6.19 6.008 6.008 0 0 1 6.191 5.81 5.993 5.993 0 0 1 -5.81 6.18 1.217 1.217 0 0 1 -.19.01 5.99 5.99 0 0 1 -5.991-5.81zm-1.28-39.98a6 6 0 0 1 5.8-6.19 6 6 0 0 1 6.189 5.81 6 6 0 0 1 -5.8 6.19h-.2a6 6 0 0 1 -5.989-5.81zm-1.28-39.98a6 6 0 0 1 5.8-6.19 6 6 0 0 1 6.19 5.81 6 6 0 0 1 -5.8 6.19h-.2a6 6 0 0 1 -5.99-5.81zm-1.28-39.98a6.014 6.014 0 0 1 5.81-6.19 6.015 6.015 0 0 1 6.19 5.81 6.015 6.015 0 0 1 -5.81 6.19h-.19a6.006 6.006 0 0 1 -6-5.81z"/></g></svg>