<svg id="Layer_1" height="512" viewBox="0 0 512 512" width="512" xmlns="http://www.w3.org/2000/svg" data-name="Layer 1"><path d="m451.58 287.49c-4.24 10.77-42.48 19.2-89.66 19.2-46.92 0-84.21-8.33-88.77-19.02 1.989 10.239 4.289 20.074 6.871 29.443a177.794 177.794 0 0 0 18.5 43.266l21.329 36.041.35-.21c12.49 2.79 50.33 9.53 89.02-1.05h-.42c18.79-24.02 33.89-61.8 42.78-107.67z" fill="#6d7486"/><path d="m437.42 36.31v.01c-.02 10.9-33.55 19.72-74.92 19.72s-74.9-8.83-74.9-19.73a4.432 4.432 0 0 1 .07-.81c1.6-10.52 34.5-18.92 74.83-18.92 41.38 0 74.92 8.83 74.92 19.73z" fill="#ffd8b7"/><path d="m238.86 287.58a361.674 361.674 0 0 1 -14 52.2l-34.4 56.9c-45.08 10.33-87.26-1.52-87.26-1.52-18.78-24.01-33.87-61.76-42.76-107.59 4.36 10.73 41.73 19.12 88.8 19.12 47.05 0 85.21-8.38 89.62-19.11z" fill="#6d7486"/><path d="m224.71 36.29c0 .01.01.01 0 .02 0 10.9-33.53 19.73-74.91 19.73-41.36 0-74.9-8.83-74.9-19.73a4.432 4.432 0 0 1 .07-.81c1.6-10.52 34.5-18.92 74.83-18.92 41.35 0 74.87 8.82 74.91 19.71z" fill="#ffd8b7"/><path d="m327.35 87.97a294.259 294.259 0 0 0 35.03 2.01c45.44 0 82.62-9.49 82.68-21.2 7.92 38.15 15.31 88.16 15.31 123.04a506.335 506.335 0 0 1 -8.78 95.65.031.031 0 0 0 -.01.02c-4.24 10.77-42.48 19.2-89.66 19.2-46.92 0-84.21-8.33-88.77-19.02a506.5 506.5 0 0 1 -8.82-95.85c0-34.88 7.39-84.89 15.31-123.04.05 8.49 19.63 15.81 47.71 19.19z" fill="#f44e4a"/><path d="m114.36 87.93a292.287 292.287 0 0 0 35.32 2.05c45.44 0 82.62-9.49 82.68-21.2 7.92 38.15 15.31 88.16 15.31 123.04a505.636 505.636 0 0 1 -8.81 95.76c-4.41 10.73-42.57 19.11-89.62 19.11-47.07 0-84.44-8.39-88.8-19.12a505.528 505.528 0 0 1 -8.81-95.75c0-34.88 7.39-84.89 15.31-123.04.05 8.46 19.5 15.76 47.42 19.15z" fill="#f44e4a"/><path d="m93.859 84.39c-16.484-3.87-26.882-9.429-26.919-15.61-7.92 38.15-15.31 88.16-15.31 123.04a505.528 505.528 0 0 0 8.81 95.75c2.365 5.821 14.46 10.95 32.535 14.43-5.512-29.423-11.345-77.015-11.345-110.18 0-30.293 5.575-71.993 12.229-107.43z" fill="#ff867d"/><path d="m60.44 287.57c8.89 45.83 23.98 83.58 42.76 107.59a183.539 183.539 0 0 0 31.976 5.1c-16.326-21.756-32.783-59.922-41.642-98.161-18.384-3.474-30.704-8.648-33.094-14.529z" fill="#b0b5ca"/><path d="m104.9 36.31a4.432 4.432 0 0 1 .07-.81c1.4-9.181 26.635-16.746 59.844-18.523-4.851-.26-9.872-.4-15.014-.4-40.33 0-73.23 8.4-74.83 18.92a4.432 4.432 0 0 0 -.07.81c0 10.9 33.54 19.73 74.9 19.73 5.139 0 10.156-.137 15-.4-34.172-1.823-59.9-9.781-59.9-19.327z" fill="#efc597"/><path d="m306.559 84.393c-16.486-3.872-26.883-9.432-26.919-15.613-7.92 38.15-15.31 88.16-15.31 123.04a506.5 506.5 0 0 0 8.82 95.85c2.421 5.677 14.072 10.687 31.493 14.139-5.3-29.861-10.313-77.8-10.313-109.989 0-30.292 5.57-71.991 12.229-107.427z" fill="#ff867d"/><path d="m317.6 36.31a4.432 4.432 0 0 1 .07-.81c1.4-9.181 26.635-16.746 59.844-18.523-4.851-.26-9.871-.4-15.014-.4-40.33 0-73.23 8.4-74.83 18.92a4.432 4.432 0 0 0 -.07.81c0 10.9 33.54 19.73 74.9 19.73 5.14 0 10.158-.137 15.006-.4-34.177-1.822-59.906-9.78-59.906-19.327z" fill="#efc597"/><path d="m327.35 87.97c-28.08-3.38-47.66-10.7-47.71-19.19 2.65-12.76 5.36-24.2 7.87-33.3l.16.02a4.432 4.432 0 0 0 -.07.81c0 10.9 33.54 19.73 74.9 19.73s74.9-8.82 74.92-19.72c2.45 8.96 5.07 20.09 7.64 32.46-.06 11.71-37.24 21.2-82.68 21.2a294.259 294.259 0 0 1 -35.03-2.01z" fill="#e0d541"/><path d="m114.36 87.93c-27.92-3.39-47.37-10.69-47.42-19.15 2.65-12.76 5.36-24.2 7.87-33.3l.16.02a4.432 4.432 0 0 0 -.07.81c0 10.9 33.54 19.73 74.9 19.73 41.38 0 74.91-8.83 74.91-19.73 2.45 8.96 5.08 20.09 7.65 32.47-.06 11.71-37.24 21.2-82.68 21.2a292.287 292.287 0 0 1 -35.32-2.05z" fill="#e0d541"/><path d="m92.975 302q.263 1.4.525 2.752" fill="#43a2ff"/><path d="m306.384 302.139c-18.376-3.459-30.733-8.607-33.234-14.469q.125.643.252 1.285a260.373 260.373 0 0 0 31.452 82.121l15 25.344.35-.21a203.586 203.586 0 0 0 31.33 4.3l-16.676-29.437a261.183 261.183 0 0 1 -28.474-68.934z" fill="#b0b5ca"/><g fill="#4a5160"><path d="m108.358 181.455h12v-92.718l-12-1z"/><path d="m333.354 88.737-12-1v93.718h12z"/><path d="m388.423 497.266-127.488-208.907v-7.276a6 6 0 0 0 -12 0v7.291l-126.32 208.913 10.27 6.209 116.05-191.929v106.313a6 6 0 0 0 12 0v-106.48l117.244 192.118z"/></g><path d="m151.632 494.948h-47.924a6 6 0 1 0 0 12h47.924a6 6 0 0 0 0-12z" fill="#d8a43d"/><path d="m279.43 411.88h-47.924a6 6 0 1 0 0 12h47.924a6 6 0 0 0 0-12z" fill="#d8a43d"/><path d="m407.227 494.948h-47.927a6 6 0 0 0 0 12h47.924a6 6 0 0 0 0-12z" fill="#d8a43d"/><path d="m305.79 179 21.85 43.71 21.86-43.71z" fill="#ccd3df"/><path d="m93.09 179 21.85 43.71 21.86-43.71z" fill="#ccd3df"/></svg>