<svg id="Layer_1" height="512" viewBox="0 0 512 512" width="512" xmlns="http://www.w3.org/2000/svg" data-name="Layer 1"><path d="m56.56 256.71q2.58 9.615 4.83 20.8c1.21 6.03 2.33 12.4 3.34 19.07s1.84 13.06 2.47 19.17c.82 7.73 1.34 15 1.6 21.77.55 14.56-.15 26.77-1.91 36.12-2.39 12.71-6.73 20.14-12.55 21.02-13.66 2.07-30.28-32.7-39.09-90.56s-3.27-96 10.39-98.08c5.89-.9 12.32 5.04 18.44 16.72 4.44 8.45 8.7 19.91 12.48 33.97z" fill="#f3e2b8"/><path d="m35.25 304.1c-6.81-44.765-5.033-77.717 2.446-91.305-4.091-4.992-8.19-7.366-12.056-6.775-13.66 2.08-19.19 40.23-10.39 98.08s25.43 92.63 39.09 90.56c3.092-.467 5.76-2.8 7.946-6.774-10.38-12.669-20.717-42.286-27.036-83.786z" fill="#ddc694"/><path d="m499.41 240.17a258.3 258.3 0 0 1 .8 48.8c-11.58-4.64-22.79-8.59-33.79-11.97 14.1-11.04 25.8-23.36 32.99-36.83z" fill="#6d7486"/><path d="m498.15 230.64c.49 3.21.91 6.38 1.26 9.53-7.19 13.47-18.89 25.79-32.99 36.83-38.61-11.87-74.75-16.69-115.87-19.06.07-.03.13-.05.2-.08 39.03-14.99 72.68-32.8 105.48-60.53 15.9 6.23 29.97 14.27 40.39 24.56l.04-.01q.81 4.305 1.49 8.76z" fill="#4a5160"/><path d="m496.66 221.88-.04.01c-10.42-10.29-24.49-18.33-40.39-24.56 8.72-7.38 17.37-15.45 26.04-24.35a254.756 254.756 0 0 1 14.39 48.9z" fill="#6d7486"/><path d="m500.21 288.97a258.3 258.3 0 0 1 -10.14 54.8l-136.56-11.23c32.12-10.19 79.31-29.24 112.91-55.54 11 3.38 22.21 7.33 33.79 11.97z" fill="#4a5160"/><path d="m353.51 332.54 136.56 11.23c-1.91 6.29-3.7 11.12-4.98 14.22-101.72 34.46-270.17 50.2-430.75 36.67 5.82-.88 10.16-8.31 12.55-21.02 45.33 1.73 241.01-26.64 286.62-41.1z" fill="#6d7486"/><path d="m457.02 125.67a256.74 256.74 0 0 1 25.25 47.31c-8.67 8.9-17.32 16.97-26.04 24.35-39.88-15.66-91.29-20.01-125.58-20.24l.95-.28h-1.09l126.4-51.06z" fill="#4a5160"/><g fill="#6d7486"><path d="m457.02 125.67-.11.08-126.4 51.06c-49.61.22-243.7 30.9-286.43 45.93-6.12-11.68-12.55-17.62-18.44-16.72l-.04-.27c149.29-60.68 314.8-95.75 422.17-93.1l.04.28c2.52 3.27 5.69 7.53 9.21 12.74z"/><path d="m466.42 277c-33.6 26.3-80.79 45.35-112.91 55.54l-284.71 4.98c-.26-6.77-.78-14.04-1.6-21.77l.44-.04c117.43-15.3 282.77-58.73 282.77-58.73l.34.88c-.07.03-.13.05-.2.08 41.12 2.37 77.26 7.19 115.87 19.06z"/><path d="m456.23 197.33c-32.8 27.73-66.45 45.54-105.48 60.53l-.34-.88s-170.77 2.53-288.77 20.48l-.25.05q-2.235-11.175-4.83-20.8l274.09-79.62c34.29.23 85.7 4.58 125.58 20.24z"/></g><path d="m68.8 337.52 284.71-4.98c-45.61 14.46-241.29 42.83-286.62 41.1 1.76-9.35 2.46-21.56 1.91-36.12z" fill="#4a5160"/><path d="m330.65 177.09-274.09 79.62c-3.78-14.06-8.04-25.52-12.48-33.97 42.73-15.03 236.82-45.71 286.43-45.93l-.66.27c.27 0 .53 0 .8.01z" fill="#4a5160"/><path d="m350.41 256.98s-165.34 43.43-282.77 58.73l-.44.04q-.945-9.165-2.47-19.17c-1.01-6.67-2.13-13.04-3.34-19.07l.25-.05c118-17.95 288.77-20.48 288.77-20.48z" fill="#4a5160"/></svg>