<svg id="Layer_1" height="512" viewBox="0 0 512 512" width="512" xmlns="http://www.w3.org/2000/svg" data-name="Layer 1"><path d="m416.94 68.48c-1.36 17.71-24.59 33.81-60.31 44.7-19.27 5.88-42.16 10.24-67.22 12.53-10.46.96-21.29 1.56-32.39 1.75-12.75.22-25.17-.1-37.09-.9v-.01c-24-1.61-45.97-5.21-64.56-10.32-35.81-9.83-59.11-25.28-60.33-43.06-.03-.37-.04-.73-.05-1.1-.56-32.14 71.07-59.45 159.99-61s161.47 23.24 162.03 55.38a19.575 19.575 0 0 1 -.07 2.03z" fill="#f3e2b8"/><path d="m259.93 126.56v-.01c-24-1.61-45.97-5.21-64.56-10.32-35.81-9.83-59.11-25.28-60.33-43.06-.03-.37-.04-.73-.05-1.1-.534-30.651 64.59-56.909 147.751-60.62-9.024-.409-18.3-.545-27.761-.38-88.92 1.55-160.55 28.86-159.99 61 .01.37.02.73.05 1.1 1.22 17.78 24.52 33.23 60.33 43.06 18.59 5.11 40.56 8.71 64.56 10.32v.01c11.92.8 24.34 1.12 37.09.9 4.052-.069 8.054-.212 12.03-.388q-4.605-.21-9.12-.512z" fill="#ddc694"/><path d="m155.36 116.27 34.7 169.37a167.707 167.707 0 0 1 -26.9-23.56v-.01c-40.12-43.17-66.82-112.34-68.15-188.9h.03c1.22 17.78 24.52 33.23 60.33 43.06z" fill="#e88746"/><path d="m127.19 106.139c-19.449-9.065-31.29-20.439-32.15-32.969h-.03c1.33 76.56 28.03 145.73 68.15 188.9v.01a167.707 167.707 0 0 0 26.9 23.56l-7.329-35.772c-28.77-36.454-49.058-87.136-55.541-143.729z" fill="#ffa76c"/><g fill="#b16c39"><path d="m356.63 113.18-30.84 172.63-36.38-160.06v-.04c25.06-2.29 47.95-6.65 67.22-12.53z"/><path d="m289.41 125.71v.04l-31.47 182.49h-.02l-37.99-181.68c11.92.8 24.34 1.12 37.09.9 11.1-.19 21.93-.79 32.39-1.75z"/><path d="m219.93 126.55v.01l-29.82 159.11c-.02-.01-.03-.02-.05-.03l-34.7-169.37.01-.04c18.59 5.11 40.56 8.71 64.56 10.32z"/></g><path d="m416.94 68.48c1.38 83.69-27.82 159.33-72.87 202.38a153.668 153.668 0 0 1 -18.24 15.01l-.04-.06 30.84-172.63c35.72-10.89 58.95-26.99 60.31-44.7z" fill="#e88746"/><path d="m325.79 285.81.04.06c-19.92 13.94-42.15 21.94-65.69 22.35-.74.01-1.47.02-2.2.02l31.47-182.49z" fill="#e88746"/><path d="m296.15 68.56c.14 8.02-17.72 14.83-39.9 15.21s-40.26-5.79-40.4-13.81 17.72-14.82 39.9-15.21 40.26 5.8 40.4 13.81z" fill="#6d7486"/><path d="m219.93 126.56 37.99 181.68c-24.13-.07-47.11-8.19-67.81-22.57z" fill="#e88746"/><path d="m344.07 268.86 27.39 186.8c-18.44 24.54-63.32 42.38-116.07 43.3-50.45.88-94.26-13.96-114.85-36.17l22.62-202.71a167.707 167.707 0 0 0 26.9 23.56l.03.14.02-.11c20.7 14.38 43.68 22.5 67.81 22.57l.01.04.01-.04c.73 0 1.46-.01 2.2-.02 23.54-.41 45.77-8.41 65.69-22.35a153.668 153.668 0 0 0 18.24-15.01z" fill="#6d7486"/><path d="m190.11 283.67-.02.11-.03-.14a167.707 167.707 0 0 1 -26.9-23.56l-22.62 202.71c6.923 7.468 16.481 14.1 28.024 19.581l21.936-198.44c-.13-.089-.261-.172-.39-.261z" fill="#b0b5ca"/></svg>