<svg id="Layer_1" height="512" viewBox="0 0 512 512" width="512" xmlns="http://www.w3.org/2000/svg" data-name="Layer 1"><path d="m256 125.62c-59.27 0-107.37-22.12-107.76-49.47.09 14.44.81 28.56 2.12 42.24h.01q1.05 11.115 2.62 21.83c20.38 14.57 59.88 27.66 102.36 27.66 43.16 0 83.49-12.69 103.65-27.64q1.575-10.71 2.63-21.85h.01c1.31-13.68 2.03-27.8 2.12-42.24-.39 27.35-48.49 49.47-107.76 49.47z" fill="#e0d541"/><path d="m183.37 138.39h-.01q-1.248-13.026-1.769-26.553c-20.386-9-33.151-21.653-33.351-35.687.09 14.44.81 28.56 2.12 42.24h.01q1.05 11.115 2.62 21.83c8.117 5.8 19.274 11.368 32.438 15.968q-1.194-8.761-2.058-17.798z" fill="#fff89c"/><path d="m359 140.24c-9.61 65.77-33 118.81-63.05 144.13-12.36 10.41-25.84 16.13-39.95 16.13s-27.59-5.72-39.95-16.13c-30.05-25.32-53.44-78.37-63.06-144.15 20.38 14.57 59.88 27.66 102.36 27.66 43.16 0 83.49-12.69 103.65-27.64z" fill="#6d7486"/><path d="m319.92 435.31c0 .91 0 1.8-.01 2.66-.31 7.36-29.58 19.34-63.91 19.34s-63.6-11.98-63.91-19.34c-.01-.86-.01-1.75-.01-2.66 0-54.32 23.34-150.2 23.34-150.2l.63-.74c12.36 10.41 25.84 16.13 39.95 16.13s27.59-5.72 39.95-16.13l.63.74s23.34 95.88 23.34 150.2z" fill="#43a2ff"/><path d="m363.76 75.55v.55a.045.045 0 0 1 0 .05c-.39 27.35-48.49 49.47-107.76 49.47s-107.37-22.12-107.76-49.47a.045.045 0 0 1 0-.05v-.55c.29-27.39 48.43-49.55 107.76-49.55s107.47 22.16 107.76 49.55z" fill="#f3e2b8"/><path d="m246.05 284.37c-27.563-23.225-49.514-69.788-60.384-128.1-13.268-4.616-24.51-10.214-32.676-16.052 9.62 65.782 33.01 118.832 63.06 144.152 12.36 10.41 25.84 16.13 39.95 16.13a53 53 0 0 0 15-2.2 69.3 69.3 0 0 1 -24.95-13.93z" fill="#b0b5ca"/><path d="m222.09 455.97c-.01-.86-.01-19.75-.01-20.66 0-41.827 13.837-108.285 20.2-136.647-9.148-2.452-17.943-7.312-26.232-14.293l-.63.74s-23.34 95.88-23.34 150.2c0 .91 0 1.8.01 2.66.31 7.36 29.58 19.34 63.91 19.34z" fill="#7bc3ff"/><path d="m178.24 76.15a.045.045 0 0 1 0-.05v-.55c.265-25.04 40.523-45.7 92.76-49.067q-7.355-.474-15-.483c-59.33 0-107.47 22.16-107.76 49.55v.55a.045.045 0 0 0 0 .05c.39 27.35 48.49 49.47 107.76 49.47q7.637 0 15-.483c-52.178-3.359-92.4-23.986-92.76-48.987z" fill="#ddc694"/><path d="m319.91 437.97c-.08 26.16-1.42 28.56-1.42 28.56 0 7.36-29.4 19.47-63.92 19.47s-61.06-12.11-61.06-19.47c0 0-1.34-2.4-1.42-28.56.31 7.36 29.58 19.34 63.91 19.34s63.6-11.98 63.91-19.34z" fill="#687990"/><path d="m264.77 146.24a6 6 0 0 1 5.58-6.39h.01a6 6 0 0 1 6.39 5.58 6 6 0 0 1 -5.59 6.39c-.13.01-.27.01-.41.01a6 6 0 0 1 -5.98-5.59zm-26.45 5.46a6 6 0 0 1 -5.52-6.45 6 6 0 0 1 6.44-5.52 6.007 6.007 0 0 1 5.52 6.44 6 6 0 0 1 -5.97 5.55c-.16 0-.31-.01-.47-.02zm58.26-8.94a6.006 6.006 0 0 1 4.68-7.08 6.005 6.005 0 0 1 7.08 4.69 6 6 0 0 1 -4.69 7.07 6.105 6.105 0 0 1 -1.2.12 5.994 5.994 0 0 1 -5.87-4.8zm-90.72 4.16a6.017 6.017 0 0 1 -4.59-7.15 6.011 6.011 0 0 1 7.15-4.58 6 6 0 0 1 4.58 7.14 6.008 6.008 0 0 1 -5.86 4.73 6.269 6.269 0 0 1 -1.28-.14zm121.76-11.9a6.014 6.014 0 0 1 3.56-7.71 6 6 0 0 1 7.7 3.56 5.986 5.986 0 0 1 -3.55 7.7 5.873 5.873 0 0 1 -2.08.38 6.02 6.02 0 0 1 -5.63-3.93zm-153.31 2.52a6.012 6.012 0 0 1 -3.42-7.77 6 6 0 0 1 7.77-3.42 6 6 0 0 1 3.42 7.76 5.994 5.994 0 0 1 -5.6 3.83 6.16 6.16 0 0 1 -2.17-.4z" fill="#4a5160"/><path d="m264.77 146.24a5.993 5.993 0 0 1 5.58-6.39 5.993 5.993 0 0 1 6.39 5.58 5.993 5.993 0 0 1 -5.58 6.39c-.14.01-.27.01-.41.01a5.991 5.991 0 0 1 -5.98-5.59zm-26.46 5.46a6.007 6.007 0 0 1 -5.52-6.44 6.008 6.008 0 0 1 6.44-5.53 6.012 6.012 0 0 1 5.53 6.45 6.019 6.019 0 0 1 -5.98 5.54c-.16 0-.31-.01-.47-.02zm58.26-8.94a6.005 6.005 0 0 1 4.69-7.08 6 6 0 0 1 7.07 4.69 6 6 0 0 1 -4.68 7.07 5.551 5.551 0 0 1 -1.2.12 6 6 0 0 1 -5.88-4.8zm-90.72 4.16a6 6 0 0 1 -4.58-7.14 6.007 6.007 0 0 1 7.14-4.59 6 6 0 0 1 4.58 7.15 6 6 0 0 1 -5.85 4.72 6.289 6.289 0 0 1 -1.29-.14zm121.77-11.9a5.986 5.986 0 0 1 3.55-7.7 6 6 0 0 1 7.71 3.55 6.014 6.014 0 0 1 -3.56 7.71 5.992 5.992 0 0 1 -2.07.37 6 6 0 0 1 -5.63-3.93zm-153.31 2.52a6 6 0 0 1 -3.42-7.76 5.994 5.994 0 0 1 7.76-3.43 6 6 0 0 1 3.42 7.77 6.005 6.005 0 0 1 -5.59 3.83 5.92 5.92 0 0 1 -2.17-.41z" fill="#f4f8fc"/></svg>