<svg id="Layer_1" height="512" viewBox="0 0 512 512" width="512" xmlns="http://www.w3.org/2000/svg" data-name="Layer 1"><path d="m301.12 436.05-.1.15a341.772 341.772 0 0 1 -57.48 4.74 353.315 353.315 0 0 1 -38.7-2.1c-32.19-3.56-60.75-11.47-82.62-22.31-27.82-13.78-44.85-32.31-44.85-52.67h-.32v-95.08l.54-.04c4.45 40.71 77.04 73.1 165.95 73.1 88.35 0 160.61-31.99 165.85-72.36v99.09c-1.79 13.84-11.47 26.7-26.96 37.61-19.33 13.63-47.72 24.24-81.2 29.98z" fill="#ad6d40"/><path d="m107.37 394.86h-.32v-86.13c-17.181-11.454-27.84-25.169-29.46-39.99l-.54.04v95.08h.32c0 17.356 12.383 33.38 33.269 46.268a38.155 38.155 0 0 1 -3.269-15.268z" fill="#dd8e58"/><path d="m336.58 200.89-.02-.02-38.13-8.99a353.187 353.187 0 0 0 -54.89-4.19q-6.93 0-13.72.26h-.01l-38.06 3.33c-67.2 9.88-114.38 39.04-114.38 73.49a35.084 35.084 0 0 0 .22 3.97c4.45 40.71 77.04 73.1 165.95 73.1 88.35 0 160.61-31.99 165.85-72.36a35.261 35.261 0 0 0 .31-4.71c0-26.58-29-50.02-73.12-63.88z" fill="#ffd8b7"/><path d="m117.59 268.74a35.084 35.084 0 0 1 -.22-3.97c0-34.45 47.18-63.61 114.38-73.49l33.616-2.941c-7.2-.425-14.507-.649-21.826-.649q-6.93 0-13.72.26h-.01l-38.06 3.33c-67.2 9.88-114.38 39.04-114.38 73.49a35.084 35.084 0 0 0 .22 3.97c4.45 40.71 77.04 73.1 165.95 73.1q10.157 0 20-.555c-79.565-4.427-141.84-34.934-145.95-72.545z" fill="#efc597"/><path d="m409.39 368.57v58.42l-26.78-20.54-.18-.27c15.49-10.91 25.17-23.77 26.96-37.61z" fill="#b0b5ca"/><path d="m382.43 406.18.18.27-32.44 76.56-48.94-46.85c33.48-5.74 61.87-16.35 81.2-29.98z" fill="#b0b5ca"/><path d="m301.02 436.2-47.96 64.67a.014.014 0 0 1 -.02 0l-48.2-62.02v-.01a353.315 353.315 0 0 0 38.7 2.1 341.772 341.772 0 0 0 57.48-4.74z" fill="#b0b5ca"/><path d="m204.84 438.85-49.29 50.46c-.01 0-.01 0-.02-.01l-33.47-72.45.16-.32c21.87 10.84 50.43 18.75 82.62 22.31z" fill="#b0b5ca"/><path d="m122.22 416.53-.16.32-42.25 19.8-.16.06a37.5 37.5 0 0 1 -2.28-12.79h-.32v-60.06h.32c0 20.36 17.03 38.89 44.85 52.67z" fill="#b0b5ca"/><g fill="#6d7486"><path d="m409.39 426.99.17.13c-1.98 22.44-24.64 42.41-59.38 55.91l-.01-.02 32.44-76.56z"/><path d="m350.17 483.01.01.02c-26.59 10.33-60.25 16.88-97.12 17.84l47.96-64.67a1.552 1.552 0 0 0 .21-.04z"/><path d="m204.84 438.85 48.2 62.02q-4.71.135-9.5.13c-32.32 0-62.47-4.28-87.99-11.69z"/><path d="m122.06 416.85 33.47 72.45c-39.52-11.46-67.9-30.42-75.88-52.59l.16-.06z"/><path d="m283.09 11.19c8.79 3.58-6.23 50.77-36.51 134.97-5.28 14.68-10.98 28.76-16.77 41.79-21.68 48.79-44.62 83.02-51.55 80.19-11.1-4.53-2.65-34.32 13.49-76.86 6.65-17.5 14.59-37.16 23.02-58.1 31.69-78.77 59.54-125.57 68.32-121.99z"/><path d="m433.95 71.59c6.91 6.5-24.08 45.13-82.6 112.81-4.9 5.67-9.85 11.17-14.79 16.47-43.76 47.08-86.63 78.62-92.84 72.78-5.56-5.24 18.56-39.98 54.71-81.77 8.69-10.04 18.07-20.49 27.9-31.04 57.9-62.09 100.71-95.76 107.62-89.25z"/></g></svg>