<svg id="Layer_1" height="512" viewBox="0 0 512 512" width="512" xmlns="http://www.w3.org/2000/svg" data-name="Layer 1"><path d="m248.935 164.195h12v27.696h-12z" fill="#4a5160"/><path d="m311.66 416.31a120.344 120.344 0 1 1 63.59-106.14 119.695 119.695 0 0 1 -63.59 106.14z" fill="#fea92a"/><path d="m254.91 213.77a96.405 96.405 0 1 1 -96.4 96.4 96.4 96.4 0 0 1 96.4-96.4z" fill="#f3e2b8"/><path d="m188.51 310.17a96.421 96.421 0 0 1 81.4-95.236 96.405 96.405 0 1 0 0 190.482 96.424 96.424 0 0 1 -81.4-95.246z" fill="#ddc694"/><path d="m281.83 295.78a30.3 30.3 0 1 1 -30.31 30.3 30.3 30.3 0 0 1 30.31-30.3z" fill="#c9b17f"/><g fill="#4a5160"><path d="m88.447 107.912h12v61.123h-12z"/><path d="m164.423 426.2-63.976-51.819v-155.411a6 6 0 0 0 -12 0v155.411l-63.975 51.819a6 6 0 1 0 7.552 9.324l56.423-45.7v65.3a6 6 0 0 0 12 0v-65.3l56.423 45.7a6 6 0 1 0 7.553-9.324z"/><path d="m411.553 107.913h12v64.947h-12z"/><path d="m487.528 426.2-63.975-51.819v-155.411a6 6 0 0 0 -12 0v155.411l-63.976 51.819a6 6 0 1 0 7.553 9.324l56.423-45.7v65.3a6 6 0 0 0 12 0v-65.3l56.423 45.7a6 6 0 1 0 7.552-9.324z"/></g><path d="m500.81 64.62c3.07 9.98-31.73 29.52-77.71 43.63-1.86.57-3.71 1.13-5.55 1.66-43.59 12.71-80.31 15.41-83.26 5.83-3.06-9.98 31.73-29.52 77.72-43.63s85.74-17.47 88.8-7.49z" fill="#ffdb00"/><path d="m99.99 72.11c45.99 14.11 80.78 33.65 77.72 43.63-2.95 9.58-39.67 6.88-83.26-5.83-1.84-.53-3.69-1.09-5.55-1.66-45.98-14.11-80.78-33.65-77.71-43.63s42.82-6.63 88.8 7.49z" fill="#ffdb00"/><path d="m211.07 146.97h87.68v19.18h-87.68z" fill="#f9d438"/><path d="m439.59 159.25-122.68 20.1 5.05 30.88a120.435 120.435 0 0 1 23.09 20.23l.01-.01 103.42-16.94z" fill="#6d7486"/><path d="m65.28 153.72-8.79 58.5 107.49 19.12.01.01a120.569 120.569 0 0 1 23.24-20.7l5.15-34.32z" fill="#6d7486"/><path d="m65.28 153.72-8.79 58.5 30.097 5.352 8.746-58.542z" fill="#b0b5ca"/><path d="m346.918 174.434-30.008 4.916 5.05 30.88a120.435 120.435 0 0 1 23.09 20.23l.01-.01 6.9-1.73z" fill="#b0b5ca"/></svg>