<svg id="Layer_1" height="512" viewBox="0 0 512 512" width="512" xmlns="http://www.w3.org/2000/svg" data-name="Layer 1"><path d="m183.65 136.8-46.85 46.85-71.73-71.73 46.85-46.85z" fill="#6d7486"/><path d="m156.8 163.65-71.73-71.73-20 20 71.73 71.73 46.85-46.85z" fill="#b0b5ca"/><path d="m429.922 442.509h66.256v41.083h-66.256z" fill="#efe34d" transform="matrix(.707 -.707 .707 .707 -191.802 463.05)"/><path d="m442.12 395.27-46.85 46.85-258.47-258.47 46.85-46.85z" fill="#e88746"/><path d="m20.877 26.315h66.256v55.381h-66.256z" fill="#e88746" transform="matrix(.707 -.707 .707 .707 -22.37 54.005)"/><path d="m435.276 455.434h29.698v41.083h-29.698z" fill="#fff8a4" transform="matrix(.707 -.707 .707 .707 -204.727 457.696)"/><path d="m261.686 119.619h29.698v365.532h-29.698z" fill="#ffa480" transform="matrix(.707 -.707 .707 .707 -132.823 284.106)"/><path d="m26.231 39.24h29.698v55.381h-29.698z" fill="#ffa480" transform="matrix(.707 -.707 .707 .707 -35.295 48.651)"/><g fill="#d4e1f4"><circle cx="385.525" cy="385.525" r="15.818"/><circle cx="337.505" cy="337.505" r="15.818"/><circle cx="289.485" cy="289.485" r="15.818"/><path d="m252.65 230.28a15.818 15.818 0 1 1 -22.37 0 15.813 15.813 0 0 1 22.37 0z"/></g><path d="m136.08 113.71a15.818 15.818 0 1 1 -22.37 0 15.831 15.831 0 0 1 22.37 0z" fill="#596172"/><path d="m407.942 430.527h66.256v21.086h-66.256z" fill="#fb6771" transform="matrix(.707 -.707 .707 .707 -182.697 441.07)"/><path d="m393.027 415.605h66.256v21.1h-66.256z" fill="#efe34d" transform="matrix(.707 -.707 .707 .707 -176.519 426.155)"/><path d="m47.912 70.497h66.256v21.086h-66.256z" fill="#efe34d" transform="matrix(.707 -.707 .707 .707 -33.568 81.04)"/></svg>