<svg id="Layer_1" height="512" viewBox="0 0 512 512" width="512" xmlns="http://www.w3.org/2000/svg" data-name="Layer 1"><path d="m182.36 378.34-6.75-6.75-93.82-93.82a78.282 78.282 0 0 1 0-110.39l16.55-16.56a77.358 77.358 0 0 1 38.82-21.04c.467-.1.936-.187 1.405-.277a79.031 79.031 0 0 0 -31.4.277 77.358 77.358 0 0 0 -38.82 21.04l-16.555 16.56a78.282 78.282 0 0 0 0 110.39l100.57 100.57a78.139 78.139 0 0 0 70.195 21.332 77.49 77.49 0 0 1 -40.195-21.332z" fill="#edb740"/><path d="m175.44 147.54-.09.1a78.233 78.233 0 0 0 -68.19-17.86l-.05-.25c-18.55-19.3-55.99-56.5-65.79-62.76-6.53-4.18-29.09-10.7-29.09-10.7l45.08-45.07s6.52 22.56 10.69 29.09c13.26 20.74 104.59 104.82 107.44 107.45z" fill="#ffcb57"/><g fill="#4a5160"><path d="m65.942 291.92-23 23a6 6 0 0 0 8.485 8.486l23-23a6 6 0 1 0 -8.485-8.486z"/><path d="m77.468 227.732h110.296v11.999h-110.296z" transform="matrix(.707 -.707 .707 .707 -126.427 162.217)"/><path d="m103.656 329.635-23 23a6 6 0 0 0 8.487 8.485l23-23a6 6 0 0 0 -8.487-8.486z"/><path d="m115.183 265.447h110.296v11.999h-110.296z" transform="matrix(.707 -.707 .707 .707 -142.053 199.946)"/><path d="m141.372 367.351-23 23a6 6 0 1 0 8.484 8.485l23-23a6 6 0 0 0 -8.484-8.485z"/><path d="m152.898 303.162h110.296v11.999h-110.296z" transform="matrix(.707 -.707 .707 .707 -157.675 237.662)"/><path d="m187.918 154.641h35.578v11.999h-35.578z" transform="matrix(.707 -.707 .707 .707 -53.342 192.492)"/><path d="m225.633 192.356h35.578v11.999h-35.578z" transform="matrix(.707 -.707 .707 .707 -68.964 230.204)"/><path d="m263.347 230.072h35.578v11.999h-35.578z" transform="matrix(.707 -.707 .707 .707 -84.585 267.937)"/></g><path d="m214.249 135.541a6 6 0 0 0 -8.486 8.485l16.557 16.558a6 6 0 0 0 8.487-8.485z" fill="#d8a43d"/><path d="m251.963 173.256a6 6 0 1 0 -8.484 8.485l16.558 16.559a6 6 0 1 0 8.484-8.486z" fill="#d8a43d"/><path d="m306.236 227.529-16.557-16.558a6 6 0 0 0 -8.485 8.486l16.558 16.557a6 6 0 1 0 8.484-8.485z" fill="#d8a43d"/><path d="m182.36 378.34-6.75-6.75-93.82-93.82a78.282 78.282 0 0 1 0-110.39l16.55-16.56a77.358 77.358 0 0 1 38.82-21.04c.467-.1.936-.187 1.405-.277a79.031 79.031 0 0 0 -31.4.277 77.358 77.358 0 0 0 -38.82 21.04l-16.555 16.56a78.282 78.282 0 0 0 0 110.39l100.57 100.57a78.139 78.139 0 0 0 70.195 21.332 77.49 77.49 0 0 1 -40.195-21.332z" fill="#ffd655"/><path d="m315.49 287.58-140.14-139.94a78.233 78.233 0 0 0 -68.19-17.86 77.358 77.358 0 0 0 -38.82 21.04l-16.55 16.56a78.282 78.282 0 0 0 0 110.39l100.57 100.57a78.282 78.282 0 0 0 110.39 0l40.47-40.48.82-.68c33.42 40.13 74.1 99.43 74.6 163.82l121.13-121.13c-73.82-4.83-145.8-58.02-184.28-92.29zm-40.48 18.4-40.77 40.77a39.153 39.153 0 0 1 -55.19 0l-95.67-95.67a39.135 39.135 0 0 1 0-55.19l13.47-13.48a39.153 39.153 0 0 1 55.19 0l123.71 122.88z" fill="#f4b008"/></svg>