<svg id="Layer_1" height="512" viewBox="0 0 512 512" width="512" xmlns="http://www.w3.org/2000/svg" data-name="Layer 1"><path d="m373.33 37.2a39.973 39.973 0 0 0 -56.56 0l-279.57 279.57a39.973 39.973 0 0 0 0 56.56l35.01 35.02 336.14-336.14z" fill="#6d7486"/><path d="m373.33 37.2a39.973 39.973 0 0 0 -56.56 0l-279.57 279.57a39.973 39.973 0 0 0 0 56.56l24 24a39.973 39.973 0 0 1 0-56.56l279.57-279.57a39.973 39.973 0 0 1 56.56 0z" fill="#b0b5ca"/><path d="m474.17 83.14-48.57-48.57a27.48 27.48 0 0 0 -38.86 0l-8.02 8.01 87.44 87.44 8.01-8.02a27.48 27.48 0 0 0 0-38.86z" fill="#555b6b"/><path d="m34.57 386.74a27.48 27.48 0 0 0 0 38.86l48.57 48.57a27.48 27.48 0 0 0 38.86 0l8.02-8.01-87.43-87.44z" fill="#555b6b"/><path d="m41.678 224.09h475.374v110.549h-475.374z" fill="#55d8d8" transform="matrix(.707 -.707 .707 .707 -115.717 279.365)"/><path d="m454.46 182.44-38.86 38.86-.45-.45-38.86-38.86 38.86-38.86z" fill="#3090fc"/><path d="m415.6 221.3-38.86 38.86-.45-.45-38.86-38.86 38.86-38.86 38.86 38.86z" fill="#49bdff"/><path d="m376.74 260.16-38.86 38.86-.45-.45-38.86-38.86 38.86-38.86 38.86 38.86z" fill="#3090fc"/><path d="m337.88 299.02-38.86 38.86-.45-.45-38.86-38.86 38.86-38.86 38.86 38.86z" fill="#49bdff"/><path d="m299.02 337.88-38.86 38.86-.45-.45-38.86-38.86 38.86-38.86 38.86 38.86z" fill="#3090fc"/><path d="m260.16 376.74-38.86 38.86-.45-.45-38.86-38.86 38.86-38.86 38.86 38.86z" fill="#49bdff"/><path d="m221.3 415.6-38.86 38.86-39.31-39.31 38.86-38.86 38.86 38.86z" fill="#3090fc"/></svg>