<svg id="Layer_1" height="512" viewBox="0 0 512 512" width="512" xmlns="http://www.w3.org/2000/svg" data-name="Layer 1"><g fill="#6d7486"><path d="m173.825 103.116h12v215.427h-12z"/><path d="m204.295 103.116h12v215.427h-12z"/><path d="m234.765 103.116h12v215.427h-12z"/><path d="m265.235 103.116h12v215.427h-12z"/><path d="m295.705 103.116h12v215.427h-12z"/><path d="m326.175 103.116h12v215.427h-12z"/></g><path d="m353.91 81.6h-195.85l-19.9 31.52h235.65z" fill="#ff7628"/><path d="m446.82 175.87c-11.16-26.92-25.34-52.4-37.42-73.9a49.148 49.148 0 0 0 25.19-42.6 48.575 48.575 0 0 0 -97.15.01c0 8.42 2.64 15.41 6.47 22.22 2.27 4.02 4.95 7.98 7.74 12.13 3.83 5.68 7.94 12.2 12.16 19.39 22.45 38.22 47.82 95.13 47.9 143.03.04 21.83-5.45 84.81-43.83 84.81-17.9 0-29.26-12.45-29.26-32.42h-165.24c0 19.97-11.36 32.42-29.27 32.42-38.37 0-43.86-63.06-43.83-84.88.08-47.89 25.43-104.75 47.88-142.96 4.22-7.2 8.35-13.74 12.18-19.43 2.79-4.14 5.46-8.08 7.72-12.09 3.84-6.81 6.49-13.8 6.49-22.24a48.57 48.57 0 1 0 -90.06 25.11 49.787 49.787 0 0 0 18.11 17.5c-24.17 43-56.69 101.93-56.78 156.44-.15 89.71 53.31 161.22 159.23 179.26.21.04.42.07.63.11h100.64c.21-.04.42-.07.63-.11 105.92-18.04 159.38-89.55 159.23-179.26-.04-27.25-8.2-55.61-19.36-82.54z" fill="#4e6dca"/><path d="m324.46 475.6h10.95a12 12 0 0 1 12 12v1.22a12 12 0 0 1 -12 12h-159.87a12 12 0 0 1 -12-12v-1.22a12 12 0 0 1 12-12z" fill="#4e6dca"/><path d="m306.95 437.67 17.51 37.93h-136.92l17.51-37.93c.21.04.42.07.63.11h100.64c.21-.04.42-.07.63-.11z" fill="#ffa82a"/><path d="m315.89 367.42v2.03a20.007 20.007 0 0 1 -20 20h-80.83a20 20 0 0 1 -20-20v-2.03a19.994 19.994 0 0 1 20-20h80.83a20 20 0 0 1 20 20z" fill="#ff7628"/><path d="m75.82 258.41c.09-54.51 32.61-113.44 56.78-156.44a49.787 49.787 0 0 1 -18.11-17.5 48.4 48.4 0 0 1 26.49-71.278 48.468 48.468 0 0 0 -56.49 71.278 49.787 49.787 0 0 0 18.11 17.5c-24.17 43-56.69 101.93-56.78 156.44-.15 89.71 53.31 161.22 159.23 179.26.21.04.42.07.63.11h30c-.21-.04-.42-.07-.63-.11-105.92-18.04-159.38-89.55-159.23-179.26z" fill="#7099ed"/><path d="m225 369.45v-2.03c0-11.05 9.01-20.42 20.06-20.42h-30c-11.05 0-20.06 9.37-20.06 20.42v2.03c0 11.04 9.01 19.55 20.06 19.55h30c-11.05 0-20.06-8.51-20.06-19.55z" fill="#ef540e"/></svg>