<svg id="Layer_1" height="512" viewBox="0 0 512 512" width="512" xmlns="http://www.w3.org/2000/svg" data-name="Layer 1"><g fill="#6d7486"><path d="m148.05 78.906 31.543 332.196 11.939-1.206-31.542-332.196z"/><path d="m179.88 89.938 27.043 287.661 11.939-1.206-27.043-287.661z"/><path d="m211.322 97.135 22.926 246.918 11.939-1.206-22.926-246.918z"/><path d="m242.251 99.258 19.327 211.296 11.94-1.206-19.328-211.296z"/><path d="m272.746 97.084 16.158 179.928 11.939-1.206-16.158-179.928z"/><path d="m302.86 91.139 13.369 152.326 11.94-1.206-13.37-152.326z"/><path d="m332.758 83.054 10.797 126.869 11.94-1.206-10.798-126.869z"/><path d="m374.579 73.6-11.94 1.206 8.241 101.568 11.94-1.207z"/></g><path d="m437.33 78.01a32.59 32.59 0 0 0 -33.63 54.84l-260.8 319.97v.25h74.96v-.25l232.12-323.73a32.588 32.588 0 0 0 -12.65-51.08z" fill="#fe8700"/><path d="m338.73 92.47c-9.62 2.75-19.61 5.57-29.9 8.07-9.78 2.37-19.83 4.45-30.11 5.92a211.061 211.061 0 0 1 -29.72 2.21h-.78a218.089 218.089 0 0 1 -30.93-2.14 207.779 207.779 0 0 1 -31.44-7.19c-10.22-3.13-20.44-6.88-31.83-11.01l-7.48-2.7c-21.69-7.79-44.04 9.77-41.45 32.67l37.81 334.52v.25h-19.17v-.25l-69.07-421.57a17.4 17.4 0 0 1 25.63-18.02c51.62 28.66 98.99 57.8 168.71 62.62 56.01 3.88 131.18-32.25 188.33 2.16a32.627 32.627 0 0 0 -27.8 1.48c-12.23-1.11-25.96 1.13-40.91 4.79-9.49 2.32-19.48 5.22-29.89 8.19z" fill="#687990"/><path d="m89.83 453.07h169.37v28.76h-169.37z" fill="#6d7486"/><path d="m210.2 481.83h35.15v19.17h-35.15z" fill="#4a5160"/><path d="m103.67 481.83h34.09v19.17h-34.09z" fill="#4a5160"/><path d="m437.33 78.01a32.59 32.59 0 0 0 -33.63 54.84l-260.8 319.97v.25h36.1l276.734-355.661a32.661 32.661 0 0 0 -18.404-19.399z" fill="#fea92a"/></svg>