<svg id="Layer_1" height="512" viewBox="0 0 512 512" width="512" xmlns="http://www.w3.org/2000/svg" data-name="Layer 1"><path d="m501 215.49v133.15h-36.22v-59.65-1.07h11.72v-71.37-1.06z" fill="#f4f8fc"/><path d="m464.78 288.99v59.65h-45.8v-59.65-1.07h11.72v-71.37-1.06h23.43v1.06 71.37h10.65z" fill="#e2e4ed"/><path d="m418.98 288.99v59.65h-46.87v-59.65-1.07h11.72v-71.37-1.06h24.5v1.06 71.37h10.65z" fill="#f4f8fc"/><path d="m372.11 288.99v59.65h-35.15v-133.15h24.5v1.06 71.37h10.65z" fill="#e2e4ed"/><path d="m336.96 215.49v133.15h-35.16v-59.65-1.07h10.66v-71.37-1.06z" fill="#f4f8fc"/><path d="m301.8 288.99v59.65h-45.8v-59.65-1.07h11.72v-71.37-1.06h23.43v1.06 71.37h10.65z" fill="#e2e4ed"/><path d="m256 288.99v59.65h-46.87v-59.65-1.07h10.65v-71.37-1.06h25.57v1.06 71.37h10.65z" fill="#f4f8fc"/><path d="m209.13 288.99v59.65h-35.15v-133.15h24.5v1.06 71.37h10.65z" fill="#e2e4ed"/><path d="m173.98 215.49v133.15h-36.22v-59.65-1.07h11.72v-71.37-1.06z" fill="#f4f8fc"/><path d="m137.76 288.99v59.65h-44.74v-59.65-1.07h11.72v-71.37-1.06h22.37v1.06 71.37h10.65z" fill="#e2e4ed"/><path d="m93.02 288.99v59.65h-47.93v-59.65-1.07h11.71v-71.37-1.06h25.57v1.06 71.37h10.65z" fill="#f4f8fc"/><path d="m45.09 288.99v59.65h-34.09v-133.15h1.07 22.36v1.06 71.37h10.66z" fill="#e2e4ed"/><g fill="#6d7486"><path d="m87.022 288.989h12v59.652h-12z"/><path d="m131.761 288.989h12v59.652h-12z"/><path d="m39.087 288.989h12v59.652h-12z"/><path d="m250 288.989h12v59.652h-12z"/><path d="m295.804 288.989h12v59.652h-12z"/><path d="m203.13 288.989h12v59.652h-12z"/><path d="m412.978 288.989h12v59.652h-12z"/><path d="m458.783 288.989h12v59.652h-12z"/><path d="m366.109 288.989h12v59.652h-12z"/></g><path d="m454.13 210v1.17 78.75h22.37v-78.75-1.17z" fill="#424f7c"/><path d="m408.33 210v1.17 78.75h22.37v-78.75-1.17z" fill="#424f7c"/><path d="m361.46 210v1.17 78.75h22.37v-78.75-1.17z" fill="#424f7c"/><path d="m291.15 210v1.17 78.75h21.31v-78.75-1.17z" fill="#424f7c"/><path d="m245.35 210v1.17 78.75h22.37v-78.75-1.17z" fill="#424f7c"/><path d="m198.48 210v1.17 78.75h21.3v-78.75-1.17z" fill="#424f7c"/><path d="m127.11 210v1.17 78.75h22.37v-78.75-1.17z" fill="#424f7c"/><path d="m82.37 210v1.17 78.75h22.37v-78.75-1.17z" fill="#424f7c"/><path d="m34.43 210v1.17 78.75h22.37v-78.75-1.17z" fill="#424f7c"/><path d="m11 164.36v51.13h1.07 488.93v-51.13z" fill="#f96154"/><path d="m11 164.36v51.13h1.07 29.93v-51.13z" fill="#e83f38"/></svg>