<svg id="Layer_1" height="512" viewBox="0 0 512 512" width="512" xmlns="http://www.w3.org/2000/svg" data-name="Layer 1"><path d="m2.523 52.108h109.431v11.999h-109.431z" fill="#4a5160" transform="matrix(.707 -.707 .707 .707 -24.323 57.493)"/><path d="m460.42 262.05-1.1-1.09s-50.67-64.31-223.99-70.06l-.26.27-44.66 44.89c5.89 172.7 69 223.52 69 223.52l.63.63c53.78 53.78 146.09 53.08 200.4-1.23l.07-.08c54.32-54.31 53.68-143.08-.09-196.85z" fill="#55d8d8"/><path d="m290.04 444.21-.63-.63s-63.11-50.82-69-223.52l28.427-28.573c-4.423-.232-8.913-.435-13.507-.587l-.26.27-44.66 44.89c5.89 172.7 69 223.52 69 223.52l.63.63c48.163 48.163 127.222 52.623 182.221 14.024-51.094 19.798-112.281 9.916-152.221-30.024z" fill="#5ac5df"/><path d="m306.95 259.83a36.114 36.114 0 0 1 10.22 58.21l-34.21-34.21 23.97-23.98z" fill="#49bdff"/><path d="m46.68 23-12.27 12.28 46.59 46.59 19.37-19.38z" fill="#49bdff"/><path d="m282.96 283.83 34.21 34.21a36.114 36.114 0 0 1 -58.21-10.22l.02-.02z" fill="#3090fc"/><path d="m81 81.87-19.42 19.41-.04.04-39.49-53.69 12.36-12.35z" fill="#3090fc"/><path d="m81 81.87-19.42 19.41 197.4 206.52 23.98-23.97z" fill="#6d7486"/><path d="m100.41 62.45-.04.04-19.37 19.38 201.96 201.96 23.97-23.98z" fill="#4a5160"/><path d="m15.242 85.005a6 6 0 1 0 -8.484 8.486l15.1 15.1a6 6 0 0 0 8.485-8.485z" fill="#d8a43d"/><path d="m107.72 22.725-15.1-15.1a6 6 0 1 0 -8.484 8.486l15.1 15.1a6 6 0 1 0 8.485-8.485z" fill="#d8a43d"/><path d="m419.183 326.594a6 6 0 0 0 -8.485 0l-38.244 38.244-333.806-333.805-8.484 8.486 333.805 333.8-38.243 38.244a6 6 0 1 0 8.484 8.485l84.973-84.973a6 6 0 0 0 0-8.481z" fill="#313960"/></svg>