<svg id="Layer_1" height="512" viewBox="0 0 512 512" width="512" xmlns="http://www.w3.org/2000/svg" data-name="Layer 1"><g fill="#4a5160"><path d="m13.256 75.123h36.096v12h-36.096z" transform="matrix(.707 -.707 .707 .707 -48.194 45.896)"/><path d="m41.257 104.397h29.954v12h-29.954z" transform="matrix(.707 -.707 .707 .707 -61.592 72.098)"/><path d="m64.076 25.304h36.096v12h-36.096z" transform="matrix(.707 -.707 .707 .707 1.918 67.239)"/><path d="m96.323 50.275h30.068v12h-30.068z" transform="matrix(.707 -.707 .707 .707 -7.177 95.224)"/></g><path d="m465.68 290.92c-68.48-68.49-174.27-26.16-192.82-44.71l-.02.02-26.61 26.61-.04.04c18.42 18.42-23.76 124.32 44.73 192.8 47.57 47.57 125.26 47.02 173.52-1.24s48.81-125.95 1.24-173.52z" fill="#e88746"/><path d="m320.92 445.68c-41.465-41.459-42.365-96.628-40.708-137.8l-33.982-35.04-.04.04c18.42 18.42-23.76 124.32 44.73 192.8 46 46 120.148 47 168.631 3.392-45.607 21.605-101.362 13.877-138.631-23.392z" fill="#ffaa71"/><path d="m409.07 331.43 13.19 13.19s-8.15 9.12-9.93 12.46c-2.11 3.98-5.65 16.83-5.65 16.83l-32.77 32.77s-9.95 1.12-13.58 3.05c-3.69 1.96-15.71 12.53-15.71 12.53l-13.19-13.19z" fill="#6d7486"/><path d="m334.76 286.4c10.18 10.17 7.6 29.25-5.76 42.6s-32.43 15.94-42.6 5.76c-6.25-6.24-7.68-15.85-4.77-25.42l5.63 5.8 27.88-27.88-5.76-5.58.09-.09c9.53-2.86 19.08-1.41 25.29 4.81z" fill="#687990"/><path d="m70.37 43.06c1.34 1.29 2.69 2.54 4.03 3.71 5.28 4.61 17.03 12.29 27.59 18.88 10.85 6.8 20.44 12.45 20.44 12.45s.69 22.1 6.6 28.01l-.32.33-.06-.06-22.27 22.27.06.06-.33.32c-5.91-5.91-28.01-6.6-28.01-6.6s-5.65-9.6-12.45-20.45c-6.59-10.55-14.27-22.3-18.88-27.58-1.17-1.34-2.42-2.69-3.71-4.03a245.524 245.524 0 0 0 -21.27-19.2s1.01-6 12.2-17.18c10.62-10.63 17.18-12.2 17.18-12.2a245.524 245.524 0 0 0 19.2 21.27z" fill="#687990"/><path d="m93.586 6.757a6 6 0 0 0 -8.486 8.486l13.085 13.084a6 6 0 1 0 8.485-8.486z" fill="#d8a43d"/><path d="m15.243 85.1a6 6 0 0 0 -8.486 8.485l13.084 13.085a6 6 0 1 0 8.486-8.485z" fill="#d8a43d"/><path d="m133.772 46.944-13.084-13.084a6 6 0 0 0 -8.485 8.485l13.084 13.084a6 6 0 0 0 8.485-8.485z" fill="#d8a43d"/><path d="m42.345 112.2a6 6 0 0 0 -8.485 8.485l13.084 13.084a6 6 0 0 0 8.485-8.485z" fill="#d8a43d"/><path d="m128.71 106.44-.06-.06-22.27 22.27.06.06 180.82 186.43 27.88-27.88z" fill="#4a525b"/></svg>