<svg id="Layer_1" height="512" viewBox="0 0 512 512" width="512" xmlns="http://www.w3.org/2000/svg" data-name="Layer 1"><path d="m167.02 116.1-5.95 26.82-34.62-1.72-7.4 31.12h-31.29l-9.52 27.99h-26.33l-.33.33a139.493 139.493 0 0 1 -31.81-47.09l112.1-83.48a136.491 136.491 0 0 1 23.51 25.98 137.566 137.566 0 0 1 11.64 20.05z" fill="#e0d541"/><path d="m366.2 172.08-5.96 26.82-34.61-1.72-7.4 31.12h-31.29l-9.52 28h-26.33l-.32.33a139.5 139.5 0 0 1 -31.82-47.1l112.1-83.47a136.123 136.123 0 0 1 23.51 25.97 137.566 137.566 0 0 1 11.64 20.05z" fill="#e0d541"/><path d="m366.2 172.08c11.47 24.23 14.53 49.5 9.29 70.28-22.83 30.86-57.6 45.3-57.6 45.3-22.32-.27-46.79-11.34-67.12-31.03l.32-.33h26.33l9.52-28h31.29l7.4-31.12 34.61 1.72z" fill="#ef56ad"/><path d="m331.05 126.06-112.1 83.47c-15.92-39.22-10.11-79.78 16.98-98.67 26.14-18.23 64.35-10.91 95.12 15.2z" fill="#ef56ad"/><path d="m167.02 116.1c11.48 24.23 14.54 49.49 9.3 70.27-22.83 30.87-57.61 45.3-57.61 45.3-22.32-.27-46.8-11.34-67.13-31.03l.33-.33h26.33l9.52-27.99h31.29l7.4-31.12 34.62 1.72z" fill="#ef56ad"/><path d="m131.87 70.07-112.1 83.48c-15.92-39.22-10.11-79.78 16.99-98.68 26.14-18.23 64.34-10.91 95.11 15.2z" fill="#ef56ad"/><path d="m154.71 206.67c-22.32-.27-47.8-12.34-68.13-32.03l-8.34 25.67h-26.33l-.33.33c20.33 19.69 44.81 30.76 67.13 31.03a158 158 0 0 0 41.767-27.725c-3.602 1.827-5.767 2.725-5.767 2.725z" fill="#ff6ef5"/><path d="m354.71 262.66c-22.32-.27-47.8-12.34-68.13-32.03l-8.34 25.67h-26.33l-.33.33c20.33 19.69 44.81 30.76 67.13 31.03a158 158 0 0 0 41.767-27.725c-3.602 1.827-5.767 2.725-5.767 2.725z" fill="#ff6ef5"/><path d="m70.41 155.42c-6.06-8.69-11.94-18.74-15.64-27.87l-35 26a139.493 139.493 0 0 0 31.81 47.09l.33-.33h26.33l8.63-25.374a138.409 138.409 0 0 1 -16.46-19.516z" fill="#fff89c"/><path d="m57.467 46.067a55.393 55.393 0 0 0 -20.707 8.8c-27.1 18.9-32.91 59.46-16.99 98.68l35.455-25.4c-11.678-29.76-10.868-61.121 2.242-82.08z" fill="#ff6ef5"/><path d="m270.41 211.41c-6.06-8.69-11.94-18.74-15.64-27.87l-35 26a139.493 139.493 0 0 0 31.81 47.09l.33-.33h26.33l8.63-25.374a138.409 138.409 0 0 1 -16.46-19.516z" fill="#fff89c"/><path d="m257.467 102.057a55.393 55.393 0 0 0 -20.707 8.8c-27.1 18.9-32.91 59.46-16.99 98.68l35.455-25.4c-11.678-29.76-10.868-61.121 2.242-82.08z" fill="#ff6ef5"/><path d="m221.43 278.37-23.34 31.91c-5.21-7.32-10.2-13.96-14.97-20l24.04-33.11c4.17 6.59 8.9 13.66 14.27 21.2z" fill="#b0b5ca"/><path d="m420.61 334.35-23.35 31.93c-5.2-7.32-10.19-13.97-14.96-20.01l24.04-33.11c4.17 6.59 8.9 13.65 14.27 21.19z" fill="#b0b5ca"/><path d="m295.33 365.59c10 13.74 8.25 32.05-3.91 40.91s-30.14 4.91-40.14-8.83c-19.43-36.48-37.3-65.05-53.19-87.39l23.34-31.91c17.22 24.15 41 53.18 73.87 87.22z" fill="#687990"/><path d="m494.51 421.57c10 13.74 8.25 32.06-3.92 40.92s-30.13 4.9-40.14-8.83c-19.43-36.48-37.29-65.04-53.19-87.38l23.35-31.93c17.22 24.15 41 53.18 73.87 87.22z" fill="#687990"/><path d="m207.16 257.17-24.04 33.11c-40.18-50.89-64.41-58.61-64.41-58.61s34.78-14.43 57.61-45.3c0 0 .67 23.09 30.84 70.8z" fill="#687990"/><path d="m406.34 313.16-24.04 33.11c-40.18-50.89-64.41-58.61-64.41-58.61s34.77-14.44 57.6-45.3c0 0 .67 23.09 30.85 70.8z" fill="#687990"/><g fill="#d4e1f4"><circle cx="251.008" cy="221.129" r="5.917"/><circle cx="51.828" cy="165.061" r="5.917"/><path d="m272.99 204.229a6 6 0 0 1 1.09-8.41 6.005 6.005 0 0 1 8.42 1.08 6.013 6.013 0 0 1 -1.09 8.42 5.975 5.975 0 0 1 -3.66 1.25 5.97 5.97 0 0 1 -4.76-2.34zm26.65-20.549a6.012 6.012 0 0 1 1.09-8.42 5.994 5.994 0 0 1 8.42 1.09 6 6 0 0 1 -1.09 8.41 5.981 5.981 0 0 1 -3.66 1.25 6.007 6.007 0 0 1 -4.76-2.33z"/><path d="m73.81 148.25a6.013 6.013 0 0 1 1.09-8.42 6.005 6.005 0 0 1 8.42 1.09 6 6 0 0 1 -1.09 8.41 5.919 5.919 0 0 1 -3.66 1.25 6.007 6.007 0 0 1 -4.76-2.33zm26.66-20.561a6 6 0 0 1 1.08-8.419 6.013 6.013 0 0 1 8.42 1.089 6.006 6.006 0 0 1 -1.09 8.421 5.908 5.908 0 0 1 -3.66 1.24 5.986 5.986 0 0 1 -4.75-2.331z"/><circle cx="331.008" cy="159.129" r="5.917"/><circle cx="131.828" cy="103.061" r="5.917"/></g></svg>