<svg id="Layer_1" height="512" viewBox="0 0 512 512" width="512" xmlns="http://www.w3.org/2000/svg" data-name="Layer 1"><g id="_Path_4" data-name=" Path 4"><path d="m4.767 465.149h77.363v11.999h-77.363z" fill="#4a5160" transform="matrix(.707 -.707 .707 .707 -320.426 168.719)"/></g><path d="m134.33 435.74-14.88 12.57c-.58.49-1.17.96-1.78 1.4l-53.08-53.08c.46-.63.95-1.24 1.46-1.84l12.54-14.79z" fill="#d8ff33"/><path d="m150.94 421.72-16.61 14.02-55.74-55.74 14.01-16.52.62.52z" fill="#50dd5a"/><g fill="#bcbec0"><path d="m345.56 252.72-83.69-83.68v-.01a80.213 80.213 0 0 1 83.69 83.69z"/><path d="m231.16 176.62 106.82 106.81a79.861 79.861 0 0 1 -15.83 22.46l-113.45-113.44a79.861 79.861 0 0 1 22.46-15.83z"/><path d="m299.68 321.72v.01a80.125 80.125 0 0 1 -30.71 7.58l-83.68-83.69a80.125 80.125 0 0 1 7.58-30.71z"/></g><path d="m261.87 169.04 83.69 83.68a80.125 80.125 0 0 1 -7.58 30.71l-106.82-106.81a79.957 79.957 0 0 1 30.71-7.59z" fill="#a7a9ac"/><path d="m208.7 192.45 113.45 113.44a80.146 80.146 0 0 1 -22.47 15.84v-.01l-106.81-106.81a80.064 80.064 0 0 1 15.83-22.46z" fill="#a7a9ac"/><path d="m185.29 245.62 83.68 83.69a80.293 80.293 0 0 1 -83.68-83.69z" fill="#a7a9ac"/><path d="m64.59 396.63 53.08 53.08a37.925 37.925 0 0 1 -53.08-53.08z" fill="#3090fc"/><path d="m259.22 329.14-.1 1.26-108.18 91.32-57.72-57.72-.62-.52 91.59-108.01 1.27-.11a80.174 80.174 0 0 0 73.76 73.78z" fill="#3090fc"/><path d="m156.42 364.17a6 6 0 0 1 -4.242-10.243l23.42-23.41a6 6 0 0 1 8.484 8.483l-23.42 23.41a5.983 5.983 0 0 1 -4.242 1.76z" fill="#4a5160"/><g id="_Path_3" data-name=" Path 3"><path d="m156.422 364.174a6 6 0 0 1 -4.242-10.243l23.42-23.416a6 6 0 1 1 8.481 8.485l-23.417 23.416a5.982 5.982 0 0 1 -4.242 1.758z" fill="#d4e1f4"/></g><path d="m504.223 194.518h.023v-89.5a14.457 14.457 0 0 0 -17.326-14.164l-56.92 11.529a14.5 14.5 0 0 0 -11.586 14.169v42.209a17.157 17.157 0 1 0 12 16.369v-35.23l61.832-12.519v53.051a17.356 17.356 0 1 0 11.977 14.082z" fill="#d8ff33"/><path d="m382.94 108.954v-89.495a14.457 14.457 0 0 0 -17.325-14.169l-56.915 11.53a14.5 14.5 0 0 0 -11.587 14.168v42.2a17.161 17.161 0 1 0 12 16.368v-35.212l61.832-12.529v53.067a17.156 17.156 0 1 0 12.155 16.408 16.468 16.468 0 0 0 -.16-2.336z" fill="#50dd5a"/><path d="m93.22 364-.62-.52-14.01 16.52 16 16 14.01-16.52.62.52z" fill="#8aff90"/><path d="m80.59 414.63-16-18a37.934 37.934 0 0 0 11.51 55.6 37.927 37.927 0 0 1 4.49-37.6z" fill="#7bc3ff"/><path d="m192.476 282.567a79.972 79.972 0 0 1 -7.016-27.207l-1.27.11-91.59 108.01.62.52 16.343 16.344z" fill="#7bc3ff"/><path d="m82.05 411.79 12.54-15.79-16-16-12.54 14.79c-.51.6-1 1.21-1.46 1.84l16.442 16.442c.333-.431.663-.864 1.018-1.282z" fill="#e5ff4a"/></svg>