<svg id="Layer_1" height="512" viewBox="0 0 512 512" width="512" xmlns="http://www.w3.org/2000/svg" data-name="Layer 1"><path d="m186.22 177.81h139.56v51.34h-139.56z" fill="#ff5a81"/><path d="m186.22 126.48h139.56v51.33h-139.56z" fill="#fd9003"/><path d="m325.78 70.81v55.67h-139.56v-55.67a59.813 59.813 0 0 1 59.81-59.81h19.94a59.813 59.813 0 0 1 59.81 59.81z" fill="#3090fc"/><path d="m325.78 229.15v1.15a59.806 59.806 0 0 1 -59.81 59.81h-19.94a59.806 59.806 0 0 1 -59.81-59.81v-1.15z" fill="#3090fc"/><path d="m372.3 167.816a6 6 0 0 0 -6 6v45.271a111.741 111.741 0 0 1 -31.131 77.6 110.116 110.116 0 0 1 -189.469-76.352v-46.519a6 6 0 0 0 -12 0v46.519a122.449 122.449 0 0 0 116.3 122.156v101.009h12v-101.017a120.823 120.823 0 0 0 81.837-37.5 123.682 123.682 0 0 0 34.463-85.896v-45.271a6 6 0 0 0 -6-6z" fill="#4a5160"/><path d="m186.22 177.81h30v51.34h-30z" fill="#ff83c7"/><path d="m186.22 126.48h30v51.33h-30z" fill="#ffae55"/><path d="m271 11.226c-1.66-.138-3.334-.226-5.03-.226h-19.94a59.813 59.813 0 0 0 -59.81 59.81v55.67h30v-55.67a59.808 59.808 0 0 1 54.78-59.584z" fill="#49bdff"/><path d="m216.22 230.3v-1.15h-30v1.15a59.806 59.806 0 0 0 59.81 59.81h19.94c1.7 0 3.37-.088 5.03-.226a59.8 59.8 0 0 1 -54.78-59.584z" fill="#49bdff"/><path d="m289.54 440.33h-67.08a59.5 59.5 0 0 0 -59.5 59.5v1.17h186.08v-1.17a59.5 59.5 0 0 0 -59.5-59.5z" fill="#687990"/><path d="m384.038 507h-256.076a6 6 0 1 1 0-12h256.076a6 6 0 0 1 0 12z" fill="#4a5160"/></svg>