<svg id="Layer_1" height="512" viewBox="0 0 512 512" width="512" xmlns="http://www.w3.org/2000/svg" data-name="Layer 1"><path d="m16.5 195.82c-9.74-6.08-6.24-33.69 8.13-62.57 14.35-28.85 34.22-48.31 44.96-44.25a7.438 7.438 0 0 1 .72.31c5.35 2.66 7.13 11.23 5.65 22.88a103.524 103.524 0 0 1 -4.52 19.21 155.563 155.563 0 0 1 -8.61 20.85 156.826 156.826 0 0 1 -11.43 19.45 104.181 104.181 0 0 1 -12.59 15.2c-8.4 8.2-16.31 11.95-21.66 9.29a6.017 6.017 0 0 1 -.65-.37z" fill="#f3e2b8"/><path d="m44.63 133.25c8.954-18 20.057-32.346 29.75-39.6a9.215 9.215 0 0 0 -4.07-4.337 7.438 7.438 0 0 0 -.72-.31c-10.74-4.06-30.61 15.4-44.96 44.25-14.37 28.88-17.87 56.49-8.13 62.57a6.017 6.017 0 0 0 .65.37c4.112 2.045 9.739.29 15.936-4.349-5.067-10.191-.732-33.923 11.544-58.594z" fill="#ddc694"/><path d="m288.08 407.25.08.23a124.176 124.176 0 0 1 -39.88 6.6v.01c-23.52-9.58-46.26-27.33-61.66-44.5l-170.12-173.77a6.017 6.017 0 0 0 .65.37c5.35 2.66 13.26-1.09 21.66-9.29l.12.12z" fill="#ffa14d"/><path d="m288.08 407.25-1.234-1.091a120.922 120.922 0 0 1 -21.566 1.921v.01c-23.52-9.58-46.26-27.33-61.66-44.5l-169.174-172.804c-6.732 5.424-12.885 7.6-17.3 5.4a6.017 6.017 0 0 1 -.65-.37l170.124 173.774c15.4 17.17 38.14 34.92 61.66 44.5v-.01a124.176 124.176 0 0 0 39.88-6.6z" fill="#ffc585"/><path d="m500.93 281.64s.78 10.63-2.88 28.13l-89.3-115.26a130.614 130.614 0 0 0 -4.56-16.17 121.032 121.032 0 0 0 -19.59-35.42 91.724 91.724 0 0 1 21.16 17.58c30.71 35.61 95.17 121.14 95.17 121.14z" fill="#b16c39"/><path d="m408.75 194.51 89.3 115.26a182.283 182.283 0 0 1 -7.83 26.67l-80.62-82.69q1.05-6.36 1.64-12.73a153.936 153.936 0 0 0 -2.49-46.51z" fill="#ef9538"/><path d="m409.6 253.75 80.62 82.69a211.637 211.637 0 0 1 -10.31 23.04l-81.49-65.45a200.862 200.862 0 0 0 11.18-40.28z" fill="#b16c39"/><path d="m479.91 359.48a1.194 1.194 0 0 1 -.08.16c-.01.02-.02.05-.03.07h-.01l-102.02-25.67a217.815 217.815 0 0 0 11.37-19.5 215.439 215.439 0 0 0 9.28-20.51z" fill="#ef9538"/><path d="m377.77 334.04 102.02 25.67c-4.38 8.42-8.6 15.77-12.59 22.17l-116.31-14.61a208.938 208.938 0 0 0 26.88-33.23z" fill="#b16c39"/><path d="m350.89 367.27 116.31 14.61a210.353 210.353 0 0 1 -16.06 22.59l-145.76-4.09a166.581 166.581 0 0 0 37.05-25.13q4.335-3.84 8.46-7.98z" fill="#ef9538"/><path d="m305.38 400.38 145.76 4.09c-12.75 15.41-20.78 19.06-20.78 19.06s-105.54.2-152.64-2.33a92.026 92.026 0 0 1 -29.44-7.11v-.01a124.176 124.176 0 0 0 39.88-6.6 139.441 139.441 0 0 0 17.21-7.1z" fill="#b16c39"/><path d="m408.75 194.51a153.936 153.936 0 0 1 2.49 46.51h-.01l-339.61-109.56-.18-.06a103.524 103.524 0 0 0 4.52-19.21l.18.02 327.87 66.19.18-.06a130.614 130.614 0 0 1 4.56 16.17z" fill="#ffa14d"/><path d="m409.6 253.75a200.862 200.862 0 0 1 -11.18 40.28 215.439 215.439 0 0 1 -9.28 20.51l-.22-.11-326.09-162.18a155.563 155.563 0 0 0 8.61-20.85l.18.06 339.61 109.56h.01q-.585 6.36-1.64 12.73z" fill="#ba7343"/><path d="m404.19 178.34-.18.06-327.87-66.19-.18-.02c1.48-11.65-.3-20.22-5.65-22.88a7.438 7.438 0 0 0 -.72-.31l242.74 30.25c22.91 2.32 50.77 10.29 72.27 23.67a121.032 121.032 0 0 1 19.59 35.42z" fill="#ba7343"/><path d="m388.92 314.43.22.11a217.815 217.815 0 0 1 -11.37 19.5 208.938 208.938 0 0 1 -26.88 33.23q-4.125 4.14-8.46 7.98l-290.87-203.44-.16-.11a156.826 156.826 0 0 0 11.43-19.45z" fill="#ffa14d"/><path d="m51.56 171.81 290.87 203.44a166.581 166.581 0 0 1 -37.05 25.13h-.01a139.441 139.441 0 0 1 -17.21 7.1l-.08-.23-249.15-220.23-.12-.12a104.181 104.181 0 0 0 12.59-15.2z" fill="#ba7343"/></svg>