<svg id="Layer_1" height="512" viewBox="0 0 512 512" width="512" xmlns="http://www.w3.org/2000/svg" data-name="Layer 1"><path d="m247.371 79.933a6 6 0 0 0 -6 6v248.7a55.708 55.708 0 1 0 12 25.265v-136.775a96 96 0 0 1 176.629 51.94 6 6 0 0 0 12 0c0-107.595-87.311-195.13-194.629-195.13z" fill="#43a2ff"/><g fill="#7dc4ff"><path d="m173 370.38a55.692 55.692 0 0 1 40.688-53.619 55.685 55.685 0 1 0 0 107.248 55.7 55.7 0 0 1 -40.688-53.629z"/><path d="m276 89.021a184.711 184.711 0 0 0 -34-3.091v135.45a115.246 115.246 0 0 1 34-33.561z"/></g></svg>