<svg id="Layer_1" height="512" viewBox="0 0 512 512" width="512" xmlns="http://www.w3.org/2000/svg" data-name="Layer 1"><path d="m407.107 122.509-123.113-23.109a6 6 0 0 0 -7.107 5.9v232.267c-9.259-9.062-23.052-14.817-38.467-14.817-27.88 0-50.48 18.79-50.48 41.98s22.6 41.98 50.48 41.98 50.47-18.8 50.47-41.98c0-.036 0-.072 0-.108v-159.174l116.006 21.78a6 6 0 0 0 7.107-5.9v-92.923a6 6 0 0 0 -4.896-5.896z" fill="#50dd5a"/><path d="m277.89 104.29v92.93l30 5.632v-92.562z" fill="#49c160"/><path d="m217.94 370.73c0-22.143 20.61-40.262 46.743-41.853a58.039 58.039 0 0 0 -26.263-6.127c-27.88 0-50.48 18.79-50.48 41.98s22.6 41.98 50.48 41.98c1.257 0 2.5-.051 3.734-.127-14.52-7.373-24.214-20.673-24.214-35.853z" fill="#49c160"/><g fill="#ffdb00"><path d="m214.962 140.066h-108.962a6 6 0 0 1 0-12h108.962a6 6 0 0 1 0 12z"/><path d="m214.962 196.67h-108.962a6 6 0 1 1 0-12h108.962a6 6 0 0 1 0 12z"/><path d="m214.962 253.273h-108.962a6 6 0 0 1 0-12h108.962a6 6 0 0 1 0 12z"/></g></svg>