<svg id="Layer_1" height="512" viewBox="0 0 512 512" width="512" xmlns="http://www.w3.org/2000/svg" data-name="Layer 1"><path d="m406.754 366.468v-253.183a26 26 0 0 0 -31.161-25.485l-157.929 31.99a26.08 26.08 0 0 0 -20.839 25.482v138.228a46 46 0 1 0 12 30.978v-102.378l185.929-37.66v166.85a45.989 45.989 0 1 0 12.426 31.43 46.625 46.625 0 0 0 -.426-6.252z" fill="#9e4eaf"/><g fill="#ce6ee5"><path d="m345.18 367.72a45.987 45.987 0 0 1 23.853-40.32 46 46 0 1 0 -7.853 91.322 45.788 45.788 0 0 0 22.15-5.681 46 46 0 0 1 -38.15-45.321z"/><path d="m146.82 309.48a45.989 45.989 0 0 1 23.853-40.319 46 46 0 1 0 -7.853 91.319 45.8 45.8 0 0 0 22.153-5.68 46 46 0 0 1 -38.153-45.32z"/><path d="m213.85 120.67a20.009 20.009 0 0 0 -16.03 19.6v74.05l30-6.076v-72.974a20.009 20.009 0 0 1 16.03-19.6z"/></g></svg>