<svg id="Layer_1" height="512" viewBox="0 0 512 512" width="512" xmlns="http://www.w3.org/2000/svg" data-name="Layer 1"><path d="m470.01 265.82s-105.09-129.27-274.55-105.83l-35.44 35.44c-23.44 169.46 105.83 274.55 105.83 274.55a105.8 105.8 0 0 0 149.63 0l54.53-54.53a105.8 105.8 0 0 0 0-149.63z" fill="#687990"/><path d="m296.85 469.98s-129.27-105.09-105.83-274.55h-31c-23.44 169.46 105.83 274.55 105.83 274.55a105.646 105.646 0 0 0 90.315 29.852 105.33 105.33 0 0 1 -59.315-29.852z" fill="#8a9db2"/><circle cx="382.795" cy="291.735" fill="#4a5160" r="19.679"/><circle cx="291.755" cy="382.775" fill="#4a5160" r="19.679"/><path d="m82.26 51.9-15.17 15.17 183.88 183.88a39.263 39.263 0 0 1 27.69-11.53z" fill="#867af4"/><path d="m67.09 67.07-15.16 15.16 187.51 196.39a39.218 39.218 0 0 1 11.53-27.67z" fill="#604af3"/><path d="m306.63 250.95a39.358 39.358 0 1 0 0 55.66 39.263 39.263 0 0 0 0-55.66z" fill="#4a5160"/><path d="m428.192 363.775a6 6 0 0 0 -8.484 0l-23.708 23.713-324.668-324.664-8.484 8.486 324.662 324.663-23.71 23.713a6 6 0 1 0 8.484 8.485l55.91-55.911a6 6 0 0 0 -.002-8.485z" fill="#313960"/><path d="m35.091 62.363-13 13a6 6 0 1 0 8.484 8.485l13-12.995a6 6 0 1 0 -8.484-8.486z" fill="#4a5160"/><path d="m83.866 22.072a6 6 0 0 0 -8.484 0l-13.048 13.048a6 6 0 1 0 8.484 8.485l13.048-13.047a6 6 0 0 0 0-8.486z" fill="#4a5160"/><path d="m26.1 70.875a6 6 0 1 0 -8.485 8.486l8.967 8.967a6 6 0 1 0 8.484-8.486z" fill="#d8a43d"/><path d="m88.35 26.556-8.967-8.967a6 6 0 0 0 -8.483 8.485l8.967 8.967a6 6 0 0 0 8.485-8.485z" fill="#d8a43d"/><path d="m82.25 51.9-51.12-40.87-20.13 20.13 40.87 51.13.06-.06 30.33-30.33z" fill="#e83d35"/></svg>