<svg id="Layer_1" height="512" viewBox="0 0 512 512" width="512" xmlns="http://www.w3.org/2000/svg" data-name="Layer 1"><path d="m417.74 112.74v376.28a11.975 11.975 0 0 0 11.98 11.98h40.73a11.975 11.975 0 0 0 11.98-11.98v-376.28z" fill="#bc5e51"/><path d="m94.26 112.74v88.75a11.975 11.975 0 0 1 -11.98 11.98h-40.73a11.975 11.975 0 0 1 -11.98-11.98v-88.75z" fill="#efe34d"/><path d="m94.26 112.74v136.67a11.982 11.982 0 0 0 11.98 11.98h40.74a11.982 11.982 0 0 0 11.98-11.98v-136.67z" fill="#c7e22b"/><path d="m158.96 112.74v184.59a11.975 11.975 0 0 0 11.98 11.98h40.73a11.975 11.975 0 0 0 11.98-11.98v-184.59z" fill="#5cb5ff"/><path d="m223.65 112.74v232.51a11.982 11.982 0 0 0 11.98 11.98h40.74a11.982 11.982 0 0 0 11.98-11.98v-232.51z" fill="#ff981d"/><path d="m353.04 112.74v328.36a11.988 11.988 0 0 0 11.98 11.98h40.74a11.988 11.988 0 0 0 11.98-11.98v-328.36z" fill="#867af4"/><path d="m288.35 112.74v280.44a11.982 11.982 0 0 0 11.98 11.98h40.73a11.982 11.982 0 0 0 11.98-11.98v-280.44z" fill="#fb6771"/><path d="m417.74 11h64.69v44.03h-64.69z" fill="#bc5e51"/><path d="m353.04 11h64.7v44.03h-64.7z" fill="#867af4"/><path d="m288.35 11h64.69v44.03h-64.69z" fill="#fb6771"/><path d="m223.65 11h64.7v44.03h-64.7z" fill="#ff981d"/><path d="m158.96 11h64.69v44.03h-64.69z" fill="#5cb5ff"/><path d="m94.26 11h64.7v44.03h-64.7z" fill="#c7e22b"/><path d="m29.57 11h64.69v44.03h-64.69z" fill="#efe34d"/><path d="m441.74 489.02v-376.28h-24v376.28a11.975 11.975 0 0 0 11.98 11.98h24a11.975 11.975 0 0 1 -11.98-11.98z" fill="#e87f74"/><path d="m417.74 11h24v44.03h-24z" fill="#e87f74"/><path d="m377.04 441.1v-328.36h-24v328.36a11.988 11.988 0 0 0 11.98 11.98h24a11.988 11.988 0 0 1 -11.98-11.98z" fill="#b194ff"/><path d="m353.04 11h24v44.03h-24z" fill="#b194ff"/><path d="m312.35 393.18v-280.44h-24v280.44a11.982 11.982 0 0 0 11.98 11.98h24a11.982 11.982 0 0 1 -11.98-11.98z" fill="#ff9c88"/><path d="m288.35 11h24v44.03h-24z" fill="#ff9c88"/><path d="m247.65 345.25v-232.51h-24v232.51a11.982 11.982 0 0 0 11.98 11.98h24a11.982 11.982 0 0 1 -11.98-11.98z" fill="#ffca61"/><path d="m223.65 11h24v44.03h-24z" fill="#ffca61"/><path d="m182.96 297.33v-184.59h-24v184.59a11.975 11.975 0 0 0 11.98 11.98h24a11.975 11.975 0 0 1 -11.98-11.98z" fill="#92f2ff"/><path d="m158.96 11h24v44.03h-24z" fill="#92f2ff"/><path d="m118.26 249.41v-136.67h-24v136.67a11.982 11.982 0 0 0 11.98 11.98h24a11.982 11.982 0 0 1 -11.98-11.98z" fill="#d8ff33"/><path d="m94.26 11h24v44.03h-24z" fill="#d8ff33"/><path d="m53.57 201.49v-88.75h-24v88.75a11.975 11.975 0 0 0 11.98 11.98h24a11.975 11.975 0 0 1 -11.98-11.98z" fill="#fff8a4"/><path d="m29.57 11h24v44.03h-24z" fill="#fff8a4"/><path d="m29.57 54.03h452.86v61.71h-452.86z" fill="#687990"/><g fill="#d4e1f4"><circle cx="172.82" cy="84.08" r="6"/><circle cx="228.27" cy="84.08" r="6"/><circle cx="117.37" cy="84.08" r="6"/><circle cx="283.73" cy="84.08" r="6"/><circle cx="339.18" cy="84.08" r="6"/><circle cx="394.63" cy="84.08" r="6"/><circle cx="449.63" cy="84.08" r="6"/><circle cx="62.37" cy="84.08" r="6"/></g></svg>