<svg id="Layer_1" height="512" viewBox="0 0 512 512" width="512" xmlns="http://www.w3.org/2000/svg" data-name="Layer 1"><path d="m461.59 429.64v59.65h-45.81v-59.65h11.72v-64.98h22.37v64.98z" fill="#b0b5ca"/><path d="m371.04 429.64v59.65h-46.87v-124.63h34.09v64.98z" fill="#b0b5ca"/><path d="m279.43 429.64v59.65h-45.8v-59.65h10.65v-64.98h23.44v64.98z" fill="#b0b5ca"/><path d="m187.83 364.66v124.63h-46.87v-59.65h12.78v-64.98z" fill="#b0b5ca"/><path d="m95.15 429.64v59.65h-45.8v-59.65h12.78v-64.98h22.37v64.98z" fill="#b0b5ca"/><path d="m501 364.66v109.15a15.481 15.481 0 0 1 -15.49 15.48h-23.92v-59.65h12.78v-64.98z" fill="#ccd3df"/><path d="m415.78 429.64v59.65h-44.74v-59.65h10.66v-64.98h22.37v64.98z" fill="#ccd3df"/><path d="m324.17 364.66v124.63h-44.74v-59.65h11.72v-64.98z" fill="#ccd3df"/><path d="m233.63 429.64v59.65h-45.8v-124.63h33.02v64.98z" fill="#ccd3df"/><path d="m140.96 429.64v59.65h-45.81v-59.65h12.78v-64.98h22.37v64.98z" fill="#ccd3df"/><path d="m49.35 429.64v59.65h-22.86a15.481 15.481 0 0 1 -15.49-15.48v-109.15h26.63v64.98z" fill="#ccd3df"/><g fill="#4a5160"><path d="m449.87 364.66h24.5v64.98h-24.5z"/><path d="m404.07 364.66h23.43v64.98h-23.43z"/><path d="m358.26 364.66h23.44v64.98h-23.44z"/><path d="m267.72 364.66h23.43v64.98h-23.43z"/><path d="m220.85 364.66h23.43v64.98h-23.43z"/><path d="m130.3 364.66h23.44v64.98h-23.44z"/><path d="m84.5 364.66h23.43v64.98h-23.43z"/><path d="m37.63 364.66h24.5v64.98h-24.5z"/></g><path d="m43.348 429.643h12v59.652h-12z" fill="#6d7486"/><path d="m89.152 429.643h12v59.652h-12z" fill="#6d7486"/><path d="m134.957 429.643h12v59.652h-12z" fill="#6d7486"/><path d="m227.63 429.643h12v59.652h-12z" fill="#6d7486"/><path d="m273.435 429.643h12v59.652h-12z" fill="#6d7486"/><path d="m365.043 429.643h12v59.652h-12z" fill="#6d7486"/><path d="m409.783 429.643h12v59.652h-12z" fill="#6d7486"/><path d="m455.587 429.643h12v59.652h-12z" fill="#6d7486"/><path d="m500.97 234.28a13.763 13.763 0 0 0 -2.66-7.33c-4.99-6.76-15.02-7.16-20.96-1.21l-.52.52c-27.46 27.46-80.87 43.24-110.34 10.1-15.19-17.09-13.1-40.55-13.92-61.75a153.416 153.416 0 0 0 -12.55-54.8c-14.43-33.17-40.94-59.78-73.12-75.98-26.26-13.21-55.69-19.5-85.02-19.5a172.525 172.525 0 0 0 -106.96 37.14 168.679 168.679 0 0 0 -63.92 132.56v172.63h490v-131.38c0-.34-.01-.67-.03-1z" fill="#687990"/><path d="m66.33 155.7a169.857 169.857 0 0 1 59.59-94.23 172.039 172.039 0 0 1 82.508-35.386 201.846 201.846 0 0 0 -26.548-1.754 172.525 172.525 0 0 0 -106.96 37.14 168.679 168.679 0 0 0 -63.92 132.56v172.63h51v-172.63a171.057 171.057 0 0 1 4.33-38.33z" fill="#8a9db2"/></svg>