<svg id="Layer_1" height="512" viewBox="0 0 512 512" width="512" xmlns="http://www.w3.org/2000/svg" data-name="Layer 1"><path d="m446.12 445.95-122.96-122.96-14.9 14.91-25.83-26.98-.4.38c19.78 20.67 9.95 43.55 9.95 43.55-19.08 40.89-14.16 88.01 16.17 118.35 34.45 34.45 90.57 36.13 134.62 7.08l-15.49-15.49z" fill="#d8a43d"/><path d="m338.15 463.2c-30.33-30.34-35.25-77.46-16.17-118.35a40.461 40.461 0 0 0 1.783-21.257l-.6-.6-14.9 14.91-25.83-26.98-.4.38c19.78 20.67 9.95 43.55 9.95 43.55-19.08 40.89-14.16 88.01 16.17 118.35 30.721 30.721 78.668 35.36 119.927 15.409-32.924 6.306-66.457-1.939-89.93-25.412z" fill="#f9c04e"/><path d="m464.96 427.11-37.68 37.68 15.49 15.49a133.441 133.441 0 0 0 37.7-37.66z" fill="#6d7486"/><path d="m112.12 92.17-19.97 19.96 216.11 225.77 29.62-29.63z" fill="#b16c39"/><path d="m473.66 308.28c-30.4-30.41-77.47-35.07-118.27-15.65 0 0-18.04 10.2-38.7-4.65l21.19 20.29-14.72 14.72 122.96 122.96 18.84-18.84 15.51 15.51c29.09-43.99 27.64-99.89-6.81-134.34z" fill="#e2a937"/><path d="m4.393 44.032h92.318v12h-92.318z" fill="#313960" transform="matrix(.707 -.707 .707 .707 -20.572 50.4)"/><path d="m30.054 69.693h92.318v12h-92.318z" fill="#313960" transform="matrix(.707 -.707 .707 .707 -31.201 76.061)"/><g fill="#d8a43d"><path d="m17.166 73.439a6 6 0 1 0 -8.486 8.486l9.98 9.975a6 6 0 0 0 8.485-8.485z"/><path d="m82.444 8.161a6 6 0 0 0 -8.485 8.485l9.979 9.979a6 6 0 1 0 8.486-8.485z"/><path d="m42.827 99.1a6 6 0 0 0 -8.486 8.485l9.979 9.98a6 6 0 0 0 8.486-8.485z"/><path d="m118.084 43.8-9.979-9.979a6 6 0 0 0 -8.485 8.485l9.979 9.979a6 6 0 0 0 8.485-8.485z"/></g><path d="m378.638 297.526h12v173.887h-12z" fill="#4a5160" transform="matrix(.707 -.707 .707 .707 -159.203 384.588)"/><path d="m345.833 389.443a6 6 0 0 1 -4.243-10.243l37.779-37.778a6 6 0 0 1 8.485 8.485l-37.778 37.779a5.984 5.984 0 0 1 -4.243 1.757z" fill="#6d7486"/><path d="m423.45 423.28-19.45 19.44-22.34-22.34 19.44-19.45z" fill="#545b6b"/><path d="m408.247 386.58h27.496v31.604h-27.496z" fill="#6d7486" transform="matrix(.707 -.707 .707 .707 -160.924 416.401)"/><path d="m90.76 61.15 14.09 14.09 7.27 16.93-19.97 19.96-17.13-7.47-13.89-13.89-25.66-25.66-1.85-1.85-.16.16c-4.47-3.74-13.62-5.8-13.62-5.8a10.14 10.14 0 0 1 -5.91-2.78c-6.23-6.22-2.19-20.36 9.01-31.56s25.34-15.24 31.56-9.02a10.1 10.1 0 0 1 2.76 5.7l.3-.06s2.06 9.15 5.8 13.62l-.11.11 1.85 1.86z" fill="#4a525b"/></svg>