<svg id="Layer_1" height="512" viewBox="0 0 512 512" width="512" xmlns="http://www.w3.org/2000/svg" data-name="Layer 1"><path d="m329.4 122.01a557.385 557.385 0 0 1 -73.4 4.65c-82.75 0-151.61-16.55-166.21-38.42a15.456 15.456 0 0 1 -2.86-8.66c0-26 75.69-47.08 169.07-47.08s169.07 21.08 169.07 47.08a15.456 15.456 0 0 1 -2.86 8.66c-9.96 14.92-45.17 27.36-92.81 33.77z" fill="#f3e2b8"/><path d="m149.79 88.24a15.456 15.456 0 0 1 -2.86-8.66c0-23.149 60-42.4 139.07-46.341-9.737-.485-19.762-.739-30-.739-93.38 0-169.07 21.08-169.07 47.08a15.456 15.456 0 0 0 2.86 8.66c14.6 21.87 83.46 38.42 166.21 38.42 10.233 0 20.251-.256 29.983-.74-68.95-3.44-123.4-18.52-136.193-37.68z" fill="#ddc694"/><path d="m173.31 120.65a500.364 500.364 0 0 0 50.72 5.16c10.35.56 21.04.85 31.97.85 10.07 0 19.94-.25 29.53-.72 15.45-.75 30.18-2.1 43.87-3.93 1.2-.17 2.39-.33 3.57-.5 23.7-3.38 44.15-8.27 59.72-14.22 14.55-5.55 24.83-12.03 29.52-19.05l.14.09-75.91 357.57c-13.94 10.05-36.31 17.69-62.78 20.99a240.761 240.761 0 0 1 -54.26.53c-25.52-2.66-47.54-9.35-62.46-18.35l-77.29-360.74.14-.09c4.09 6.13 12.44 11.84 24.17 16.88 14.93 6.43 35.32 11.78 59.35 15.53z" fill="#43a2ff"/><path d="m259.4 467.42c-25.52-2.66-47.54-9.35-62.46-18.35l-72.857-340.051c-3.6-1.25-6.988-2.549-10.123-3.9-11.73-5.04-20.08-10.75-24.17-16.88l-.14.09 77.29 360.74c14.92 9 36.94 15.69 62.46 18.35a236.078 236.078 0 0 0 24.76 1.28q7.724 0 15.178-.47c-3.361-.206-6.684-.465-9.938-.809z" fill="#7bc3ff"/><path d="m346.44 445.9-2.14 10.1v17.02l-.12-.04c0 12.43-25.34 22.97-60.41 26.63l-.11-1.06v-31.66c26.47-3.3 48.84-10.94 62.78-20.99z" fill="#687990"/><path d="m283.66 498.55.11 1.06a269.432 269.432 0 0 1 -54.37.03v-32.22a240.761 240.761 0 0 0 54.26-.53z" fill="#687990"/><path d="m229.4 499.62v.02c-34.4-3.55-59.5-13.72-60.63-25.81l.26-15-2.09-9.76c14.92 9 36.94 15.69 62.46 18.35z" fill="#687990"/><g fill="#fff27d"><path d="m363.52 22.12c16.35 3.62 27.55 16.04 25.28 27.89l-.13.38c-15.95-5.61-36.41-10.19-59.85-13.31l.07-.55c3.08-11.57 18.38-18 34.63-14.41z"/><path d="m282.01 32.44-.03.61c-8.47-.36-17.15-.55-25.98-.55-12.12 0-23.95.36-35.35 1.04l-.04-.69c.29-12.08 13.91-21.83 30.68-21.85 16.61-.02 30.15 9.51 30.72 21.44z"/><path d="m170.13 38.31.11.69c-24.15 3.96-44.46 9.55-58.97 16.24l-.46-.99c-3.19-11.86 7.51-25.04 23.89-29.44s32.24 1.64 35.43 13.5z"/><path d="m149.13 92.51c15.78 4.24 26.29 16.63 24.18 28.14-24.03-3.75-44.42-9.1-59.35-15.53 3.73-11.27 19.21-16.9 35.17-12.61z"/><path d="m392.55 106.47.14.82c-15.57 5.95-36.02 10.84-59.72 14.22l-.33-1.55c-2.27-11.86 8.93-24.27 25.28-27.89 16.25-3.59 31.55 2.83 34.63 14.4z"/><path d="m285.47 124.72.06 1.22c-9.59.47-19.46.72-29.53.72-10.93 0-21.62-.29-31.97-.85l.04-.67c.29-12.09 13.91-21.83 30.68-21.85 16.61-.02 30.15 9.51 30.72 21.43z"/></g><path d="m248.936 127.276h12v126.596h-12z" fill="#4a5160"/><path d="m235.404 499.617-12-1v-150.063h12z" fill="#4a5160"/><path d="m289.66 498.554-12 1v-154.193h12z" fill="#4a5160"/><path d="m335.404 302.809h-12v-180.915l12-1z" fill="#4a5160"/><path d="m184.34 303.872h-12v-182.914l12 1z" fill="#4a5160"/><path d="m329.919 295.981a21.543 21.543 0 1 0 21.543 21.543 21.568 21.568 0 0 0 -21.543-21.543z" fill="#e0d541"/><path d="m276.945 268.5a21.543 21.543 0 1 0 -21.545 21.538 21.567 21.567 0 0 0 21.545-21.538z" fill="#e0d541"/><path d="m229.181 312.5a20.276 20.276 0 1 0 20.277 20.276 20.3 20.3 0 0 0 -20.277-20.276z" fill="#e0d541"/><path d="m283.2 310.55a20.276 20.276 0 1 0 20.276 20.276 20.3 20.3 0 0 0 -20.276-20.276z" fill="#e0d541"/><path d="m178.162 296.562a21.543 21.543 0 1 0 21.538 21.538 21.567 21.567 0 0 0 -21.538-21.538z" fill="#e0d541"/></svg>