<svg id="Layer_1" height="512" viewBox="0 0 512 512" width="512" xmlns="http://www.w3.org/2000/svg" data-name="Layer 1"><g fill="#56568c"><path d="m354.26 408.22c15.68 9.65 24.96 21.6 24.96 34.53 0 11.1-6.83 21.47-18.68 30.29l-.07-.09c10.09-36.79-27.06-54.05-27.06-54.05v-.01a200.535 200.535 0 0 0 20.83-10.71z"/><path d="m309.86 427.64s32.57 22.3 27.26 58.16l.03.07a187.03 187.03 0 0 1 -35.37 10.32l-.01-.06c0-35.15-19.89-62.21-19.89-62.21l-.01-.05a199.159 199.159 0 0 0 27.98-6.26z"/><path d="m251.74 436.06v64.76a263.4 263.4 0 0 1 -49.88-4.65l.01-.04c0-35.15 19.89-62.21 19.89-62.21l.02-.2a201.8 201.8 0 0 0 29.96 2.34z"/><path d="m193.85 427.41-.07.23s-32.57 22.3-27.26 58.16l-.01.02a107.308 107.308 0 0 1 -23.36-12.85l.01-.02c-10.08-36.79 27.07-54.05 27.07-54.05l.1-.22a198.811 198.811 0 0 0 23.52 8.73z"/></g><path d="m333.41 418.9s37.15 17.26 27.06 54.05l.07.09a107.734 107.734 0 0 1 -23.39 12.83l-.03-.07c5.31-35.86-27.26-58.16-27.26-58.16l-.01-.03a201.965 201.965 0 0 0 23.56-8.72z" fill="#6c63b5"/><path d="m301.77 496.13.01.06a262.82 262.82 0 0 1 -49.89 4.63h-.15v-64.76a200.7 200.7 0 0 0 30.13-2.19l.01.05s19.89 27.06 19.89 62.21z" fill="#6c63b5"/><path d="m221.78 433.72-.02.2s-19.89 27.06-19.89 62.21l-.01.04a186.772 186.772 0 0 1 -35.35-10.35l.01-.02c-5.31-35.86 27.26-58.16 27.26-58.16l.07-.23a204.487 204.487 0 0 0 20.81 5.09c2.37.45 4.75.86 7.12 1.22z" fill="#6c63b5"/><path d="m170.33 418.68-.1.22s-37.15 17.26-27.07 54.05l-.01.02c-11.8-8.8-18.59-19.15-18.59-30.22 0-12.93 9.28-24.88 24.96-34.53l.13-.21a195.793 195.793 0 0 0 20.68 10.67z" fill="#6c63b5"/><path d="m251.74 438.06a201.8 201.8 0 0 1 -29.96-2.34c-2.37-.36-4.75-.77-7.12-1.22a204.487 204.487 0 0 1 -20.81-5.09 198.811 198.811 0 0 1 -23.52-8.73 195.793 195.793 0 0 1 -20.68-10.67 201.141 201.141 0 0 1 -51.05-302.93c19.77 38.6 82.37 75.26 161.07 90.18 78.52 14.89 150.06 3.77 182.7-24.77l.45.5a201.023 201.023 0 0 1 -191.08 265.07z" fill="#d8a43d"/><path d="m271.78 435.72c-2.37-.36-4.75-.77-7.12-1.22a204.487 204.487 0 0 1 -20.81-5.09 198.811 198.811 0 0 1 -23.52-8.73 195.793 195.793 0 0 1 -20.68-10.67 201.2 201.2 0 0 1 -73.586-270.234c-12.337-10.41-21.715-21.47-27.464-32.7a201.141 201.141 0 0 0 51.05 302.93 195.793 195.793 0 0 0 20.68 10.67 198.811 198.811 0 0 0 23.52 8.73 204.487 204.487 0 0 0 20.81 5.09c2.37.45 4.75.86 7.12 1.22a199.967 199.967 0 0 0 55.561.765c-1.852-.228-3.705-.481-5.561-.761z" fill="#edb740"/><path d="m293.37 19.59c101.46 19.24 176.15 74.61 166.85 123.67-2.1 11.09-8.32 20.9-17.85 29.23-32.64 28.54-104.18 39.66-182.7 24.77-78.7-14.92-141.3-51.58-161.07-90.18-5.72-11.16-7.86-22.48-5.77-33.48 9.3-49.06 99.09-73.24 200.54-54.01z" fill="#ccd3df"/><path d="m285.64 60.35c63.51 12.04 110.91 43.33 105.87 69.88s-60.6 38.31-124.11 26.27-110.91-43.32-105.87-69.88 60.6-38.31 124.11-26.27z" fill="#6d7486"/><path d="m279.5 92.75c20.71 3.93 36.16 14.13 34.52 22.79s-19.76 12.49-40.47 8.56-36.17-14.12-34.53-22.78 19.77-12.5 40.48-8.57z" fill="#4a5160"/></svg>