<svg id="Layer_1" height="512" viewBox="0 0 512 512" width="512" xmlns="http://www.w3.org/2000/svg" data-name="Layer 1"><path d="m437.09 76.21c29.49 48.82-36.54 150-149.63 228.15-110.98 76.69-226.7 103.16-264.26 61.73a44.7 44.7 0 0 1 -3.69-4.64c-33.09-47.88 33.24-151.06 148.15-230.46s234.86-104.96 267.95-57.09c.52.76 1.02 1.53 1.48 2.31z" fill="#ffd8b7"/><path d="m83.2 356.09a44.7 44.7 0 0 1 -3.69-4.64c-33.09-47.88 33.24-151.06 148.15-230.46 49.654-34.313 100.248-58.561 144.373-71.183-53.674 1.023-130.076 29.841-204.373 81.183-114.91 79.4-181.24 182.58-148.15 230.46a44.7 44.7 0 0 0 3.69 4.64c20.753 22.891 65.371 25.044 119.861 9.46-26.494.502-47.448-5.768-59.861-19.46z" fill="#efc597"/><g fill="#43a2ff"><path d="m464.87 116.4 9.99 14.45c4.56 8.3 6.18 16.08 3.47 25.09-5.53 18.35-18.84 31.09-31.77 27.88l-.71-.36c12.31-24.35 18.77-47.54 18.43-67.9l.57.82z"/><path d="m438.79 196.45c14.97 12.33 11.94 40.84-6.81 63.71-18.57 22.68-45.61 31.33-60.73 19.53 28.66-27.3 51.61-55.81 67.54-83.24z"/><path d="m350.09 299.15c11.05 15.99.26 42.59-24.1 59.42s-53.06 17.52-64.11 1.54l-.16-.28a514.571 514.571 0 0 0 44.91-27.78 543.347 543.347 0 0 0 43.25-33.15z"/><path d="m236.26 373.11c5.99 18.48-11.99 40.86-40.16 49.99s-55.85 1.54-61.84-16.95l-.03-.22c31.46-5.06 66.33-16.13 101.93-33.03z"/><path d="m115.49 408.27.07.85c-4.77 12.24-9.43 23.7-31.4 21.44-9.98-1.03-22.78-9.41-36.73-29.52l.03-.02c18.42 7.17 41.7 9.55 68.03 7.25z"/></g><path d="m371.25 279.69q-10.2 9.72-21.37 19.21a543.347 543.347 0 0 1 -43.25 33.15 514.571 514.571 0 0 1 -44.91 27.78q-12.81 7.035-25.56 13.07c-35.6 16.9-70.47 27.97-101.93 33.03q-9.6 1.545-18.74 2.34c-26.33 2.3-49.61-.08-68.03-7.25l-.03.02c-.16-.23-.32-.45-.48-.68l-.05.03-23.7-34.3c37.56 41.43 153.28 14.96 264.26-61.73 113.09-78.15 179.12-179.33 149.63-228.15l27.19 39.35c.34 20.36-6.12 43.55-18.43 67.9q-3.255 6.45-7.06 12.99c-15.93 27.43-38.88 55.94-67.54 83.24z" fill="#ad6d40"/><path d="m500.99 168.67c1.02 61.68-60.31 149.23-157.65 216.5-97.01 67.04-201.73 91.33-259.18 68.97l.13.36-37.39-54.11.05-.03c.16.23.32.45.48.68 13.95 20.11 26.75 28.49 36.73 29.52 21.97 2.26 26.63-9.2 31.4-21.44l-.07-.85q9.135-.78 18.74-2.34l.03.22c5.99 18.49 33.68 26.07 61.84 16.95s46.15-31.51 40.16-49.99l-.1-.21q12.735-6.03 25.56-13.07l.16.28c11.05 15.98 39.75 15.3 64.11-1.54s35.15-43.43 24.1-59.42l-.21-.25q11.16-9.465 21.37-19.21c15.12 11.8 42.16 3.15 60.73-19.53 18.75-22.87 21.78-51.38 6.81-63.71q3.795-6.54 7.06-12.99l.71.36c12.93 3.21 26.24-9.53 31.77-27.88 2.71-9.01 1.09-16.79-3.47-25.09l25.9 37.49z" fill="#fea92a"/></svg>