<svg id="Layer_1" height="512" viewBox="0 0 512 512" width="512" xmlns="http://www.w3.org/2000/svg" data-name="Layer 1"><path d="m237.27 249.03-.43.42-17.13 22.18-24.42-24.42 17.13-22.18 1.12-1.03q11.64 12.72 23.73 25.03z" fill="#f9d438"/><g fill="#d8a43d"><path d="m61.124 49.129h63.4v12h-63.4z" transform="matrix(.648 -.761 .761 .648 -9.337 90.04)"/><path d="m91.175 78.247h60.62v12h-60.62z" transform="matrix(.656 -.755 .755 .656 -21.808 120.627)"/><path d="m188.688 179.097h52.684v12h-52.684z" transform="matrix(.707 -.707 .707 .707 -67.902 206.265)"/></g><path d="m291.218 190.645-195.418-180.689a1.568 1.568 0 0 0 -2.24 2.19l177.557 201.244-1.322-1.322c18.834 18.834 25.512 47.98 25.212 65.981 4.689-9.567 14.4-22.423 27.09-35.113 12.557-12.556 25.268-22.179 34.8-26.935-18.01.312-46.845-6.522-65.679-25.356z" fill="#ffdb00"/><path d="m284.451 206.723-106.98-121.254-81.671-75.513a1.568 1.568 0 0 0 -2.24 2.19l177.557 201.244-1.322-1.322c18.834 18.834 25.512 47.98 25.212 65.981a108.336 108.336 0 0 1 12.586-18.983c-2.212-17.224-9.5-38.7-24.464-53.665z" fill="#edb740"/><path d="m371.289 214.035c5.611 5.611-7.334 27.635-28.9 49.2s-43.589 34.515-49.189 28.904c-2.311-2.3-1.478-7.4 1.811-14.09 4.689-9.567 14.4-22.423 27.09-35.113 12.557-12.556 25.268-22.179 34.8-26.935h.011c6.843-3.411 12.044-4.301 14.377-1.966z" fill="#d8a43d"/><path d="m467.308 470.637-220.028-220.027c-16.658-16.659-33.569-34.885-50.261-54.174-44.183-51.049-130.219-130.57-133.945-134.006a27.55 27.55 0 0 1 -8.135-18.93 25.054 25.054 0 0 1 7.3-18.388c8.91-8.908 23.081-9.614 33.537-2.328a6.022 6.022 0 0 0 7.714-.647 6.031 6.031 0 0 0 -.87-9.218 39.231 39.231 0 0 0 -21.758-7.1 36.949 36.949 0 0 0 -37.92 37.91 39.5 39.5 0 0 0 11.7 27.244l.013-.014c.059.059.1.128.164.185.881.811 88.624 81.731 133.122 133.145 15.121 17.471 30.423 34.077 45.568 49.47l-16.9 21.258 226.937 228.936c.322.32.657.623 1 .9a6 6 0 0 0 3.782 1.342 6.1 6.1 0 0 0 1.805-.276 6.246 6.246 0 0 0 3.48-2.876l14.638-25.143a6 6 0 0 0 -.943-7.263z" fill="#49bdff"/></svg>