<svg id="Layer_1" height="512" viewBox="0 0 512 512" width="512" xmlns="http://www.w3.org/2000/svg" data-name="Layer 1"><path d="m454.62 357.94c19.24-10.34 35.06-13.15 42.32-5.91 13.47 13.45-7.68 56.49-47.25 96.14s-82.57 60.89-96.04 47.44c-6.55-6.54-4.92-20.06 3.02-36.79 8.41-17.69 23.88-38.96 44.22-59.35 18.26-18.3 37.25-32.67 53.73-41.53z" fill="#f4b008"/><path d="m458.77 390.27c4.63 4.62-6.61 23.38-25.1 41.91s-37.23 29.8-41.86 25.19 6.62-23.38 25.11-41.91 37.23-29.8 41.85-25.19z" fill="#4a5160"/><path d="m363.53 333.73s42.22 27.57 91.09 24.21c-16.48 8.86-35.47 23.23-53.73 41.53-20.34 20.39-35.81 41.66-44.22 59.35l-.13-.06s3.29-59.23-23.44-94.19c0 0 .02-.16.06-.47.47-3.53 4.49-26.04 29.46-30.22.3-.06.6-.11.91-.15z" fill="#fe8700"/><path d="m72.31 24.91-10.66-10.67a6.47 6.47 0 0 0 -9.14 0l-39.62 39.62a6.47 6.47 0 0 0 0 9.14l10.67 10.66a6.452 6.452 0 0 0 9.14 0l39.61-39.61a6.452 6.452 0 0 0 0-9.14z" fill="#d8a43d"/><path d="m346.594 340.585c-10.851 8.292-13.091 20.942-13.434 23.515-.04.31-.06.47-.06.47 26.73 34.96 23.44 94.19 23.44 94.19l.13.06a167.415 167.415 0 0 1 13.888-23.429c.221-5.023 1.535-61.451-23.964-94.806z" fill="#ec6437"/><g fill="#4a5160"><path d="m145.392 344.808-23.616 23.615a6 6 0 1 0 8.485 8.485l23.615-23.615a6 6 0 1 0 -8.484-8.485z"/><path d="m161.986 294.844h71.711v11.999h-71.711z" transform="matrix(.707 -.707 .707 .707 -154.778 227.99)"/><path d="m254.341 219.356h37.977v11.999h-37.977z" transform="matrix(.707 -.707 .707 .707 -79.294 259.278)"/><path d="m98.922 298.339-23.615 23.616a6 6 0 0 0 8.486 8.485l23.615-23.616a6 6 0 0 0 -8.486-8.485z"/><path d="m115.517 248.374h71.71v11.999h-71.71z" transform="matrix(.707 -.707 .707 .707 -135.529 181.524)"/><path d="m207.871 172.887h37.976v11.999h-37.976z" transform="matrix(.707 -.707 .707 .707 -60.048 212.792)"/><path d="m52.454 251.87-23.615 23.614a6 6 0 1 0 8.484 8.486l23.615-23.615a6 6 0 1 0 -8.484-8.485z"/><path d="m69.048 201.906h71.711v11.999h-71.711z" transform="matrix(.707 -.707 .707 .707 -116.282 135.059)"/><path d="m161.402 126.418h37.977v11.999h-37.977z" transform="matrix(.707 -.707 .707 .707 -40.8 166.327)"/></g><path d="m305.472 222.922-28.949-28.948a6 6 0 0 0 -8.484 8.485l28.948 28.948a6 6 0 1 0 8.485-8.485z" fill="#d8a43d"/><path d="m230.057 147.5a6 6 0 0 0 -8.487 8.486l28.948 28.948a6 6 0 0 0 8.482-8.481z" fill="#d8a43d"/><path d="m183.586 101.036a6 6 0 1 0 -8.484 8.485l28.948 28.948a6 6 0 1 0 8.484-8.486z" fill="#d8a43d"/><path d="m362.55 333.43-294.81-294.81-30.47 30.47 294.81 294.82 1.08.19c.47-3.53 4.49-26.04 29.46-30.22z" fill="#f4b008"/><path d="m54.77 51.59-17.5 17.5 294.81 294.82 1.08.19c.325-2.444 2.359-13.986 11.866-22.244z" fill="#ffd655"/><path d="m267.94 299.76-166.78-166.78a65.019 65.019 0 0 0 -75.96 64.1 64.3 64.3 0 0 0 18.85 45.63l114.27 114.26a64.876 64.876 0 0 0 109.62-57.21zm-40.98 34.44a32.326 32.326 0 0 1 -45.71 0l-114.27-114.27a32.322 32.322 0 0 1 45.71-45.71l114.27 114.27a32.338 32.338 0 0 1 0 45.71z" fill="#8a9db2"/></svg>