<svg id="Layer_1" height="512" viewBox="0 0 512 512" width="512" xmlns="http://www.w3.org/2000/svg" data-name="Layer 1"><path d="m33.032 85.983h117.525v12h-117.525z" fill="#4a5160" transform="matrix(.707 -.707 .707 .707 -38.156 91.85)"/><path d="m-.242 55.973h124.054v12h-124.054z" fill="#4a5160" transform="matrix(.707 -.707 .707 .707 -25.725 61.84)"/><path d="m123.27 80.81-58.82-64.26-47.7 47.7 64.26 58.82 25.59 9.29 25.96-25.96z" fill="#b16c39"/><path d="m478.51 321.76c-23.76-22.63-55.02-19.86-74.58-20.52-9.82-.33-20.23-3.78-27.72-11.27-7.59-7.58-10.84-18.15-11.29-28.08 0 0 1.18-14.07-12.3-27.55-16.13-16.14-46.13-20-73.85 7.72l-.13.14-36.24 36.24-.14.13c-25.8 25.8-23.87 57.73-7.73 73.86 13.47 13.48 27.55 12.3 27.55 12.3 9.93.45 20.49 3.71 28.08 11.29 7.49 7.49 10.94 17.9 11.27 27.72.66 19.57-2.11 50.82 20.52 74.58 33.86 35.58 97.94 27.84 141.17-15.4s50.96-107.31 15.39-141.16z" fill="#e88746"/><path d="m351.95 458.32c-22.63-23.76-19.86-55.01-20.52-74.58-.33-9.82-3.78-20.23-11.27-27.72-7.59-7.58-18.15-10.84-28.08-11.29 0 0-14.08 1.18-27.55-12.3-9.752-9.746-14.3-25.263-10.7-41.708l-11.43-12.282-.14.13c-25.8 25.8-23.87 57.73-7.73 73.86 13.47 13.48 27.55 12.3 27.55 12.3 9.93.45 20.49 3.71 28.08 11.29 7.49 7.49 10.94 17.9 11.27 27.72.66 19.57-2.11 50.82 20.52 74.58 32.187 33.822 91.679 28.5 134.613-9.255-37.586 18.207-79.446 15.7-104.613-10.745z" fill="#ff996c"/><path d="m365.05 321.01a30.992 30.992 0 0 1 0 43.84l-43.85-43.85a31 31 0 0 1 43.85.01z" fill="#9e5e32"/><path d="m365.05 364.85v.01a31.01 31.01 0 0 1 -43.86-43.85l.01-.01z" fill="#89512b"/><path d="m132.66 106.3-.1.1-12.98 12.98 181.7 181.7c5.06-5.05 13.6-25.15 13.6-25.15z" fill="#7ce5e9"/><path d="m119.58 119.38-12.98 12.98-.09.1 169.63 182.22s20.09-8.55 25.14-13.6z" fill="#5ac5df"/><path d="m51.73 76.86a6 6 0 0 1 -.3-8.48 6 6 0 0 1 8.48-.3 6 6 0 0 1 .3 8.48 5.967 5.967 0 0 1 -4.39 1.91 5.966 5.966 0 0 1 -4.09-1.61z" fill="#4a5160"/><path d="m68.28 59.71a6 6 0 0 1 .3-8.48 5.994 5.994 0 0 1 8.48.3 6 6 0 0 1 -.3 8.48 5.966 5.966 0 0 1 -4.09 1.61 5.967 5.967 0 0 1 -4.39-1.91z" fill="#4a5160"/><path d="m275.097 52.477h12v456.834h-12z" fill="#4a5160" transform="matrix(.707 -.707 .707 .707 -116.29 281.037)"/><g fill="#d8a43d"><path d="m144.514 53.114-13.851-13.851a6 6 0 0 0 -8.485 8.486l13.85 13.85a6 6 0 1 0 8.486-8.485z"/><path d="m102.962 6.945a6 6 0 0 0 -8.485 8.486l13.851 13.85a6 6 0 1 0 8.485-8.485z"/><path d="m47.561 122.366a6 6 0 0 0 -8.486 8.486l13.851 13.848a6 6 0 0 0 8.485-8.485z"/><path d="m15.243 94.665a6 6 0 1 0 -8.486 8.485l13.851 13.85a6 6 0 0 0 8.485-8.485z"/></g><path d="m77.23 102.36a6 6 0 0 1 -.3-8.48 6 6 0 0 1 8.48-.3 6 6 0 0 1 .3 8.48 5.967 5.967 0 0 1 -4.39 1.91 5.966 5.966 0 0 1 -4.09-1.61z" fill="#4a5160"/><path d="m93.78 85.21a6 6 0 0 1 .3-8.48 5.994 5.994 0 0 1 8.48.3 6 6 0 0 1 -.3 8.48 5.966 5.966 0 0 1 -4.09 1.61 5.967 5.967 0 0 1 -4.39-1.91z" fill="#4a5160"/><path d="m428.749 408.946h38.622v23.207h-38.622z" fill="#9e5e32" transform="matrix(.707 -.707 .707 .707 -166.14 440.003)"/><path d="m401.423 436.26h38.64v23.211h-38.64z" fill="#89512b" transform="matrix(.707 -.707 .707 .707 -193.456 428.686)"/></svg>