<svg id="Layer_1" height="512" viewBox="0 0 512 512" width="512" xmlns="http://www.w3.org/2000/svg" data-name="Layer 1"><path d="m351.18 379.75 14.39-14.39-99.8-99.8-14.38 14.39-61.09-64.36c-26.15 39.61-23.51 95.31 11.36 130.18 22.63-8.47 51.39 1.01 69.41 24.8 18.59 24.54 19.58 56 3.83 75.38a123.6 123.6 0 0 0 179.91 27.68z" fill="#995628"/><path d="m312.27 449.63a123.894 123.894 0 0 1 -15.37-18.68c15.75-19.38 14.76-50.84-3.83-75.38-18.02-23.79-46.78-33.27-69.41-24.8-28.062-28.062-35.234-69.608-23.343-105.408l-10.017-9.772c-26.15 39.61-23.51 95.31 11.36 130.18 22.63-8.47 51.39 1.01 69.41 24.8 18.59 24.54 19.58 56 3.83 75.38a123.6 123.6 0 0 0 179.91 27.68l-.593-.579a123.474 123.474 0 0 1 -141.947-23.421z" fill="#c47641"/><path d="m464.85 290.05a124.039 124.039 0 0 0 -18.7-15.37c-19.38 15.75-50.74 14.68-75.28-3.91-23.77-18.01-33.39-46.78-24.96-69.4-35-34.93-90.48-37.75-130.11-11.28l64.36 61.08-14.39 14.39 99.8 99.8 14.39-14.39 93.89 103.62a123.466 123.466 0 0 0 -9-164.54z" fill="#b58663"/><path d="m379.96 350.97-28.78 28.78 103.63 93.88a123.609 123.609 0 0 0 19.04-19.04z" fill="#6d7486"/><path d="m1.921 47.073h101.875v12h-101.875z" fill="#313960" transform="matrix(.707 -.707 .707 .707 -22.046 52.921)"/><path d="m98.96 18.653-11.682-11.681a6 6 0 1 0 -8.484 8.485l11.682 11.681a6 6 0 1 0 8.484-8.485z" fill="#d8a43d"/><path d="m15.242 79.007a6 6 0 0 0 -8.484 8.486l11.681 11.681a6 6 0 0 0 8.485-8.485z" fill="#d8a43d"/><path d="m307.947 240.722h11.999v146.021h-11.999z" fill="#313960" transform="matrix(.707 -.707 .707 .707 -129.889 313.883)"/><path d="m299.63 332.128a6 6 0 0 1 -4.242-10.243l26.284-26.285a6 6 0 1 1 8.484 8.485l-26.284 26.284a5.982 5.982 0 0 1 -4.242 1.759z" fill="#6d7486"/><path d="m88.88 69.62-19.04 19.04 181.55 191.29 28.77-28.78z" fill="#6d7486"/><path d="m42.64 15.59-26.83 26.83 54.03 46.24 19.04-19.04z" fill="#4a5160"/></svg>