<svg id="Layer_1" height="512" viewBox="0 0 512 512" width="512" xmlns="http://www.w3.org/2000/svg" data-name="Layer 1"><path d="m345.31 373.28 14.14-14.14-98.08-98.09-14.15 14.14-70.84-74.64-.3.28c-29.37 35.07-32.35 84.44.8 117.59.03.03 8.97 3.63 12.57 7.24a26.75 26.75 0 0 1 7.75 21.35l-.04.04a7.85 7.85 0 1 0 15.66 1.13c.79-13.62 21.95-13.37 49.63 19.77 24.91 29.83 21.47 50.34 8.02 50.08a7.854 7.854 0 0 0 -3.24 15.37l.05-.03a26.784 26.784 0 0 1 21.72 27.41s76.65 86.59 158.93 5.55z" fill="#fd9003"/><path d="m309 440.78a26.784 26.784 0 0 0 -21.72-27.41l-.05.03a7.854 7.854 0 0 1 3.24-15.37c13.45.26 16.89-20.25-8.02-50.08-27.68-33.14-48.84-33.39-49.63-19.77a7.85 7.85 0 1 1 -15.66-1.13l.04-.04a26.75 26.75 0 0 0 -7.75-21.35c-3.6-3.61-12.54-7.21-12.57-7.24-26.053-26.053-29.779-62.121-15.929-93.4l-4.571-4.474-.3.28c-29.37 35.07-32.35 84.44.8 117.59.03.03 8.97 3.63 12.57 7.24a26.75 26.75 0 0 1 7.75 21.35l-.04.04a7.85 7.85 0 1 0 15.66 1.13c.79-13.62 21.95-13.37 49.63 19.77 24.91 29.83 21.47 50.34 8.02 50.08a7.854 7.854 0 0 0 -3.24 15.37l.05-.03a26.784 26.784 0 0 1 21.72 27.414s76.65 86.59 158.93 5.55l-2.045-2c-73.421 48.136-136.885-23.55-136.885-23.55z" fill="#ec6437"/><path d="m373.59 345-28.28 28.28 102.62 93.05q4.5-4.425 9-9.52c-.06.06-.13.11-.19.17l.28-.27c-.03.03-.06.07-.09.1q5.22-4.6 9.71-9.2z" fill="#4a5160"/><path d="m460.81 288.97a26.809 26.809 0 0 1 -27.4-21.73l.02-.04a7.848 7.848 0 1 0 -15.36 3.23c.26 13.46-20.26 16.9-50.08-8.02-33.14-27.68-33.39-48.84-19.77-49.63a7.85 7.85 0 0 0 -1.13-15.66l-.04.04a26.763 26.763 0 0 1 -21.35-7.74c-3.61-3.61-7.22-12.54-7.25-12.57-33.15-33.15-82.52-30.18-117.58-.8l-.01.01 74.65 70.85-14.14 14.14 98.08 98.09 14.14-14.14 93.05 102.61c80.57-82.17-5.83-158.64-5.83-158.64z" fill="#fea92a"/><path d="m2.077 46.176h100.126v11.999h-100.126z" fill="#6d7486" transform="matrix(.707 -.707 .707 .707 -21.622 52.15)"/><path d="m97.523 18.274-11.48-11.481a6 6 0 0 0 -8.486 8.485l11.48 11.481a6 6 0 0 0 8.486-8.485z" fill="#d8a43d"/><path d="m15.242 77.592a6 6 0 1 0 -8.484 8.486l11.481 11.481a6 6 0 1 0 8.485-8.486z" fill="#d8a43d"/><path d="m302.185 235.37h11.999v145.001h-11.999z" fill="#313960" transform="matrix(.707 -.707 .707 .707 -127.432 308.092)"/><path d="m294.641 326.579a6 6 0 0 1 -4.243-10.243l25.831-25.836a6 6 0 1 1 8.486 8.485l-25.831 25.833a5.986 5.986 0 0 1 -4.243 1.761z" fill="#6d7486"/><g fill="#4a5160"><path d="m401.492 323.517a17.516 17.516 0 0 1 -10.575-3.891c-3.747-2.869-9.228-6.708-14.528-10.421-5.589-3.915-11.369-7.964-15.43-11.091-.3-.227-2.932-2.192-4.267-1.022a2.423 2.423 0 0 0 -.223 3.415 6 6 0 0 1 -9.024 7.91 14.437 14.437 0 0 1 1.336-20.348c5.342-4.683 12.994-4.471 19.5.537 3.846 2.962 9.512 6.932 14.992 10.77 5.4 3.785 10.992 7.7 14.941 10.724.3.228 2.948 2.194 4.278 1.032a2.419 2.419 0 0 0 .224-3.416 6 6 0 0 1 9.023-7.91 14.436 14.436 0 0 1 -1.337 20.349 13.333 13.333 0 0 1 -8.91 3.362z"/><path d="m309.268 415.345a14.357 14.357 0 0 1 -9.5-3.57 6 6 0 1 1 7.91-9.024 2.426 2.426 0 0 0 3.417-.224c1.163-1.328-.805-3.981-1.034-4.278-3.026-3.951-6.942-9.541-10.729-14.948-3.836-5.477-7.8-11.141-10.764-14.985-5.009-6.5-5.22-14.158-.537-19.5a14.42 14.42 0 0 1 20.348-1.336 6 6 0 0 1 -7.91 9.023 2.419 2.419 0 0 0 -3.415.225c-1.171 1.335.794 3.969 1.021 4.265 3.126 4.059 7.173 9.836 11.086 15.423 3.715 5.3 7.556 10.787 10.427 14.535 4.989 6.514 5.2 14.163.529 19.486a14.393 14.393 0 0 1 -10.849 4.908z"/><path d="m87.5 68.48-41.67-56.87-33.91 33.9 56.87 41.68 178.43 188 14.15-14.14 14.14-14.14z"/></g></svg>