<svg id="Layer_1" height="512" viewBox="0 0 512 512" width="512" xmlns="http://www.w3.org/2000/svg" data-name="Layer 1"><path d="m501 82.56v241.1l-61.76 5.05-.02-.28v-250.32l.05-.6z" fill="#ffdb00"/><path d="m414.76 75.5-.04.48v254.59l.01.15-60.73 4.97v-263.97l.1-1.18z" fill="#fea927"/><path d="m329.59 68.53-.09 1.06v268.11l-61.74 5.05-.04-.47v-278.02l.06-.79z" fill="#ff7628"/><path d="m244.33 61.55-.05.58v282.28l.02.26-61.8 5.06v-292.93l.02-.3z" fill="#b95ccc"/><path d="m158.1 54.5-.1 1.24v295.99l-60.72 4.97v-306.29l.07-.88z" fill="#42a1ff"/><path d="m72.93 47.53-.15 1.82v309.35l-61.78 5.06v-321.3z" fill="#ee473e"/><path d="m468.65 111.37a10.075 10.075 0 1 1 -10.07 10.08 10.076 10.076 0 0 1 10.07-10.08z" fill="#d4e1f4"/><path d="m468.65 274.71a10.075 10.075 0 1 1 -10.07 10.07 10.074 10.074 0 0 1 10.07-10.07z" fill="#d4e1f4"/><path d="m439.27 77.51-.05.6v250.32l.02.28-24.51 2.01-.01-.15v-254.59l.04-.48z" fill="#6d7486"/><path d="m382.74 103.95a10.075 10.075 0 1 1 -10.07 10.07 10.074 10.074 0 0 1 10.07-10.07z" fill="#d4e1f4"/><path d="m381.68 282.13a10.075 10.075 0 1 1 -10.07 10.08 10.076 10.076 0 0 1 10.07-10.08z" fill="#d4e1f4"/><path d="m354.1 70.54-.1 1.18v263.97l-24.5 2.01v-268.11l.09-1.06z" fill="#6d7486"/><path d="m345.35 447.71-.18.13-183.18 21.7-2.36-19.91 183.18-21.7.21.08a21.6 21.6 0 0 0 2.33 19.7z" fill="#fea92a"/><path d="m297.89 96.52a10.08 10.08 0 1 1 -10.07 10.08 10.083 10.083 0 0 1 10.07-10.08z" fill="#d4e1f4"/><path d="m295.77 288.49a10.08 10.08 0 1 1 -10.07 10.08 10.083 10.083 0 0 1 10.07-10.08z" fill="#d4e1f4"/><path d="m272.42 401.79-.19.13-183.17 21.7-2.36-19.91 183.18-21.7.21.07a21.621 21.621 0 0 0 2.33 19.71z" fill="#fea92a"/><path d="m267.78 63.47-.06.79v278.02l.04.47-23.46 1.92-.02-.26v-282.28l.05-.58z" fill="#6d7486"/><path d="m213.05 90.16a10.075 10.075 0 1 1 -10.08 10.08 10.074 10.074 0 0 1 10.08-10.08z" fill="#d4e1f4"/><path d="m210.92 294.86a10.075 10.075 0 1 1 -10.07 10.07 10.074 10.074 0 0 1 10.07-10.07z" fill="#d4e1f4"/><path d="m182.52 56.5-.02.3v292.93l-24.5 2v-295.99l.1-1.24z" fill="#6d7486"/><path d="m127.14 83.8a10.075 10.075 0 1 1 -10.08 10.07 10.072 10.072 0 0 1 10.08-10.07z" fill="#d4e1f4"/><path d="m126.08 302.28a10.075 10.075 0 1 1 -10.08 10.08 10.074 10.074 0 0 1 10.08-10.08z" fill="#d4e1f4"/><path d="m97.35 49.53-.07.88v306.29l-24.5 2v-309.35l.15-1.82z" fill="#6d7486"/><path d="m40 44.916-30-2.456v321.3l30-2.457z" fill="#ff716e"/><path d="m40.17 76.37a10.075 10.075 0 1 1 -10.08 10.08 10.074 10.074 0 0 1 10.08-10.08z" fill="#d4e1f4"/><path d="m40.17 309.71a10.075 10.075 0 1 1 -10.08 10.07 10.072 10.072 0 0 1 10.08-10.07z" fill="#d4e1f4"/><g fill="#8a9db2"><path d="m383.68 433.06a21.6 21.6 0 1 1 -23.98-18.9 21.588 21.588 0 0 1 23.98 18.9z"/><path d="m310.75 387.14a21.6 21.6 0 1 1 -23.99-18.9 21.607 21.607 0 0 1 23.99 18.9z"/></g></svg>